<svg xmlns="http://www.w3.org/2000/svg" xmlns:xlink="http://www.w3.org/1999/xlink" width="300" height="249" viewBox="0 0 300 249">
  <defs>
    <clipPath id="clip-path">
      <rect id="Rectangle_102" data-name="Rectangle 102" width="300" height="249" transform="translate(228 8703)" fill="#fff" stroke="#707070" stroke-width="1"/>
    </clipPath>
    <clipPath id="clip-path-2">
      <rect id="Rectangle_101" data-name="Rectangle 101" width="540.011" height="308.532" fill="none" stroke="rgba(0,0,0,0)" stroke-width="1"/>
    </clipPath>
  </defs>
  <g id="Group_3" data-name="Group 3" transform="translate(-228 -8703)" clip-path="url(#clip-path)">
    <g id="Group_310" data-name="Group 310" transform="translate(137.995 8683.133)">
      <g id="Group_309" data-name="Group 309" transform="translate(0 0)">
        <rect id="Rectangle_91" data-name="Rectangle 91" width="540.011" height="305.603" transform="translate(0 2.929)" fill="#711012" stroke="rgba(0,0,0,0)" stroke-width="1"/>
        <path id="Path_1491" data-name="Path 1491" d="M1.867.028,7.509,0,5.642,376.127,0,376.155Z" transform="matrix(0.769, -0.639, 0.639, 0.769, 47.46, 8.999)" fill="#b62025" stroke="rgba(0,0,0,0)" stroke-width="1"/>
        <path id="Path_1492" data-name="Path 1492" d="M1.856.028,7.5,0,5.642,373.53,0,373.558Z" transform="matrix(0.768, -0.641, 0.641, 0.768, 40.492, 15.617)" fill="#b62025" stroke="rgba(0,0,0,0)" stroke-width="1"/>
        <g id="Group_308" data-name="Group 308" transform="translate(0 0)">
          <g id="Group_307" data-name="Group 307" clip-path="url(#clip-path-2)">
            <path id="Path_1323" data-name="Path 1323" d="M423.33,391.179l-4.633-1.17a12.564,12.564,0,0,1,.664-1.8,14.061,14.061,0,0,0,1.1-9.762c-1.087-3.227-20.733-34.284-32.878-53.129l4-2.632c.08.125,8.135,12.627,16.213,25.448,16.528,26.232,17.048,28.2,17.271,29.047a18.83,18.83,0,0,1-1.316,12.926c-.168.4-.377.891-.421,1.069" transform="translate(-278.699 -231.115)" fill="#b62025" stroke="rgba(0,0,0,0)" stroke-width="1"/>
            <path id="Path_1324" data-name="Path 1324" d="M454.932,326.2a33.857,33.857,0,0,1-10.751-1.987c-5.861-1.974-17.478-11.644-35.515-29.563-13.092-13.007-24.733-25.639-24.849-25.765l3.5-3.285c12.756,13.858,48.109,50.579,58.377,54.036,5.954,2.005,9.887,1.9,12.138,1.463a7.461,7.461,0,0,0,3.362-1.366c-.031.028-.045.044-.045.044l3.377,3.411c-.413.417-3.24,3.011-9.591,3.011" transform="translate(-275.992 -190.225)" fill="#b62025" stroke="rgba(0,0,0,0)" stroke-width="1"/>
            <path id="Path_1325" data-name="Path 1325" d="M510,382.5c-37.185-38.592-57.221-70.481-65.855-86.055-6.446-11.628-11.337-22.786-15.653-32.631-6.621-15.105-12.339-28.15-21.059-36.958-10.384-10.489-20.445-16.281-31.1-22.412-9.124-5.252-18.558-10.682-28.576-19.356-11.24-9.732-21.711-23.447-34.968-40.812-4.866-6.374-10.382-13.6-16.421-21.254l3.735-3.007c6.063,7.685,11.591,14.926,16.468,21.315,13.09,17.144,23.428,30.687,34.295,40.1,9.671,8.374,18.9,13.688,27.832,18.827,10.939,6.3,21.271,12.244,32.109,23.192,9.349,9.444,15.234,22.87,22.049,38.416,4.273,9.748,9.116,20.8,15.453,32.228,8.519,15.368,28.306,46.851,65.11,85.047Z" transform="translate(-213.114 -85.957)" fill="#b62025" stroke="rgba(0,0,0,0)" stroke-width="1"/>
            <path id="Path_1326" data-name="Path 1326" d="M1390.7,486.279c-3.019-.776-74.125-19.1-91.1-27.895-12.694-6.576-26.919-19.341-37.305-28.662-3.545-3.181-6.607-5.928-8.762-7.647-8.51-6.787-17.113-30.492-17.475-31.5l-.329-.914.726-.64c8.116-7.152,12.015-14.933,11.589-23.127a22.007,22.007,0,0,0-3.091-10.278l2.312-1.612a24.439,24.439,0,0,1,3.576,11.583c.639,10.964-5.9,19.505-11.808,24.916,1.661,4.41,9.235,23.754,16.242,29.342,2.22,1.77,5.309,4.543,8.887,7.754,24.344,21.847,31.792,25.705,36.721,28.258,16.691,8.646,89.772,27.48,90.507,27.67Z" transform="translate(-888.584 -253.545)" fill="#b62227" stroke="rgba(0,0,0,0)" stroke-width="1"/>
            <path id="Path_1327" data-name="Path 1327" d="M409.455,395.01a218.531,218.531,0,0,0-13.39-19.16c-7.428-9.536-18.838-22.5-31.02-30.107-9.873-6.165-19.466-11.064-27.93-15.384-12.3-6.283-21.2-10.822-23.75-15.7-3.6-6.875-9.457-19.412-10.388-21.412l-.946-.956-.109-.329c-.986-2.2-32.432-61.6-37.843-70.713-5.115-8.612-63.009-79.777-63.593-80.495l2.6-2.163c2.392,2.939,58.637,72.079,63.88,80.906,4.141,6.973,35.091,64.841,37.935,70.882l.873.882.125.27c.065.141,6.576,14.16,10.441,21.535,2.053,3.916,11.431,8.7,22.291,14.249,8.524,4.352,18.186,9.285,28.182,15.527,12.613,7.876,24.322,21.169,31.925,30.934a221.874,221.874,0,0,1,13.594,19.462Zm-107.549-103.1.005.016Z" transform="translate(-144.165 -99.265)" fill="#b62025" stroke="rgba(0,0,0,0)" stroke-width="1"/>
            <path id="Path_1493" data-name="Path 1493" d="M.466.013,3.843,0,3.377,120.118,0,120.132Z" transform="translate(281.367 1.634) rotate(-25.156)" fill="#b62025" stroke="rgba(0,0,0,0)" stroke-width="1"/>
            <line id="Line_10" data-name="Line 10" y1="198.443" x2="420.833" transform="translate(49.087 46.489)" fill="#fde293" stroke="rgba(0,0,0,0)" stroke-width="1"/>
            <path id="Path_1494" data-name="Path 1494" d="M.027,1.809,465.3,0l-.027,7.082L0,8.891Z" transform="translate(46.815 240.097) rotate(-25.025)" fill="#e67c75" stroke="rgba(0,0,0,0)" stroke-width="1"/>
            <path id="Path_1328" data-name="Path 1328" d="M1011.4,701.829l-5.675,7.056-5.239,5.733s-3.929,5.292-6.112,6.174-3.929,2.646-6.548,3.969-3.929,4.41-9.167,4.851-3.492,3.528-3.492,3.528l3.929.882,5.239,2.2s5.238-3.087,7.858-3.087a40.975,40.975,0,0,1,9.167.882c4.8.882,6.548,2.2,10.477,3.969s18.772,6.615,22.7,5.733,5.239-5.733,5.239-5.733l-.437-7.056-5.675-11.466s-12.223-16.757-22.264-17.639" transform="translate(-701.015 -502.662)" fill="#b62025"/>
            <path id="Path_1329" data-name="Path 1329" d="M1337.577,313.549h-3.527a2.335,2.335,0,0,1,0-4.669h3.527a2.335,2.335,0,0,1,0,4.669" transform="translate(-957.617 -221.225)" fill="#fff" stroke="rgba(0,0,0,0)" stroke-width="1"/>
            <path id="Path_1330" data-name="Path 1330" d="M1337.351,313.413h-3.527a2.423,2.423,0,0,1,0-4.847h3.527a2.423,2.423,0,0,1,0,4.847m-3.527-4.669a2.246,2.246,0,0,0,0,4.491h3.527a2.246,2.246,0,0,0,0-4.491Z" transform="translate(-957.391 -221)" stroke="rgba(0,0,0,0)" stroke-width="1"/>
            <path id="Path_1331" data-name="Path 1331" d="M1340.465,314.268a1.3,1.3,0,0,1,.464-.5,3.369,3.369,0,0,0,.411-.329.49.49,0,0,0,.144-.339.379.379,0,0,0-.083-.25.333.333,0,0,0-.521.059.8.8,0,0,0-.052.29h-.447a1.145,1.145,0,0,1,.109-.487.672.672,0,0,1,.653-.353.824.824,0,0,1,.591.207.722.722,0,0,1,.22.55.748.748,0,0,1-.155.466,1.561,1.561,0,0,1-.335.3l-.184.132q-.173.124-.237.179a.525.525,0,0,0-.107.129h1.021v.409h-1.6a1.123,1.123,0,0,1,.109-.464" transform="translate(-963.814 -223.716)" stroke="rgba(0,0,0,0)" stroke-width="1"/>
            <path id="Path_1332" data-name="Path 1332" d="M1347.346,313.13v-.316a2.016,2.016,0,0,0,.3-.029.427.427,0,0,0,.225-.124.406.406,0,0,0,.09-.169.4.4,0,0,0,.017-.094h.384v2.363h-.471V313.13Z" transform="translate(-968.839 -223.744)" stroke="rgba(0,0,0,0)" stroke-width="1"/>
            <path id="Path_1333" data-name="Path 1333" d="M1117.417,416.063h-3.527a2.335,2.335,0,0,1,0-4.669h3.527a2.334,2.334,0,0,1,0,4.669" transform="translate(-799.306 -294.647)" fill="#fff" stroke="rgba(0,0,0,0)" stroke-width="1"/>
            <path id="Path_1334" data-name="Path 1334" d="M1117.192,415.928h-3.527a2.424,2.424,0,0,1,0-4.847h3.527a2.424,2.424,0,0,1,0,4.847m-3.527-4.669a2.246,2.246,0,0,0,0,4.491h3.527a2.246,2.246,0,0,0,0-4.491Z" transform="translate(-799.081 -294.423)" stroke="rgba(0,0,0,0)" stroke-width="1"/>
            <path id="Path_1335" data-name="Path 1335" d="M1120.306,416.782a1.31,1.31,0,0,1,.465-.5,3.407,3.407,0,0,0,.411-.329.489.489,0,0,0,.144-.339.379.379,0,0,0-.082-.249.333.333,0,0,0-.521.059.789.789,0,0,0-.051.29h-.447a1.147,1.147,0,0,1,.108-.487.673.673,0,0,1,.654-.353.824.824,0,0,1,.591.207.722.722,0,0,1,.22.55.75.75,0,0,1-.155.466,1.565,1.565,0,0,1-.334.3l-.185.132c-.115.083-.194.142-.237.179a.521.521,0,0,0-.107.129h1.021v.409h-1.6a1.126,1.126,0,0,1,.108-.464" transform="translate(-805.503 -297.138)" stroke="rgba(0,0,0,0)" stroke-width="1"/>
            <path id="Path_1336" data-name="Path 1336" d="M1127.187,415.645v-.316a2.024,2.024,0,0,0,.3-.029.427.427,0,0,0,.225-.124.41.41,0,0,0,.09-.17.4.4,0,0,0,.018-.094h.384v2.363h-.471v-1.629Z" transform="translate(-810.529 -297.167)" stroke="rgba(0,0,0,0)" stroke-width="1"/>
            <path id="Path_1337" data-name="Path 1337" d="M761.677,582.232H758.15a2.335,2.335,0,0,1,0-4.669h3.527a2.335,2.335,0,0,1,0,4.669" transform="translate(-543.503 -413.66)" fill="#fff" stroke="rgba(0,0,0,0)" stroke-width="1"/>
            <path id="Path_1338" data-name="Path 1338" d="M761.45,582.1h-3.527a2.423,2.423,0,0,1,0-4.846h3.527a2.423,2.423,0,0,1,0,4.846m-3.527-4.668a2.245,2.245,0,0,0,0,4.49h3.527a2.245,2.245,0,0,0,0-4.49Z" transform="translate(-543.276 -413.435)" stroke="rgba(0,0,0,0)" stroke-width="1"/>
            <path id="Path_1339" data-name="Path 1339" d="M764.566,582.951a1.3,1.3,0,0,1,.465-.5,3.4,3.4,0,0,0,.411-.329.489.489,0,0,0,.143-.339.379.379,0,0,0-.082-.249.333.333,0,0,0-.521.059.788.788,0,0,0-.051.29h-.447a1.145,1.145,0,0,1,.108-.487.673.673,0,0,1,.654-.353.825.825,0,0,1,.591.208.721.721,0,0,1,.22.55.748.748,0,0,1-.155.466,1.547,1.547,0,0,1-.335.3l-.184.132q-.173.124-.237.179a.527.527,0,0,0-.107.129h1.021v.409h-1.6a1.122,1.122,0,0,1,.108-.464" transform="translate(-549.701 -416.151)" stroke="rgba(0,0,0,0)" stroke-width="1"/>
            <path id="Path_1340" data-name="Path 1340" d="M771.446,581.813V581.5a2.035,2.035,0,0,0,.3-.029.426.426,0,0,0,.225-.124.41.41,0,0,0,.09-.169.4.4,0,0,0,.018-.094h.384v2.362H772v-1.629Z" transform="translate(-554.725 -416.179)" stroke="rgba(0,0,0,0)" stroke-width="1"/>
            <path id="Path_1341" data-name="Path 1341" d="M504.233,700.812h-3.527a2.334,2.334,0,0,1,0-4.669h3.527a2.334,2.334,0,0,1,0,4.669" transform="translate(-358.382 -498.59)" fill="#fff" stroke="rgba(0,0,0,0)" stroke-width="1"/>
            <path id="Path_1342" data-name="Path 1342" d="M504.006,700.676h-3.527a2.423,2.423,0,0,1,0-4.847h3.527a2.423,2.423,0,0,1,0,4.847m-3.527-4.669a2.246,2.246,0,0,0,0,4.491h3.527a2.246,2.246,0,0,0,0-4.491Z" transform="translate(-358.156 -498.365)" stroke="rgba(0,0,0,0)" stroke-width="1"/>
            <path id="Path_1343" data-name="Path 1343" d="M507.122,701.531a1.306,1.306,0,0,1,.465-.5A3.38,3.38,0,0,0,508,700.7a.49.49,0,0,0,.144-.339.379.379,0,0,0-.082-.249.333.333,0,0,0-.521.059.789.789,0,0,0-.051.29h-.447a1.144,1.144,0,0,1,.108-.487.672.672,0,0,1,.654-.353.825.825,0,0,1,.591.208.721.721,0,0,1,.22.55.749.749,0,0,1-.155.466,1.56,1.56,0,0,1-.335.3l-.184.132q-.173.124-.237.179a.526.526,0,0,0-.107.129h1.021v.409h-1.6a1.122,1.122,0,0,1,.108-.464" transform="translate(-364.58 -501.08)" stroke="rgba(0,0,0,0)" stroke-width="1"/>
            <path id="Path_1344" data-name="Path 1344" d="M514,700.394v-.316a2,2,0,0,0,.3-.029.425.425,0,0,0,.225-.124.407.407,0,0,0,.09-.169.388.388,0,0,0,.018-.095h.384v2.362h-.471v-1.629Z" transform="translate(-369.605 -501.109)" stroke="rgba(0,0,0,0)" stroke-width="1"/>
            <path id="Path_1345" data-name="Path 1345" d="M895.543,517.722a.8.8,0,0,0,.3.307.861.861,0,0,0,.735-.069,1.494,1.494,0,0,0,.411-.26.463.463,0,0,0,.13-.564.334.334,0,0,0-.28-.2,1.858,1.858,0,0,0-.571.059l-.425.092a2.611,2.611,0,0,1-.906.083.958.958,0,0,1-.712-.614,1.149,1.149,0,0,1-.009-.966,1.655,1.655,0,0,1,.892-.8,1.73,1.73,0,0,1,1.11-.145,1.171,1.171,0,0,1,.817.683l-.716.329a.56.56,0,0,0-.5-.33,1.068,1.068,0,0,0-.485.113.929.929,0,0,0-.419.334.412.412,0,0,0-.028.408.336.336,0,0,0,.3.209,2.341,2.341,0,0,0,.541-.068l.693-.139a1.737,1.737,0,0,1,.734-.022.962.962,0,0,1,.65.59,1.146,1.146,0,0,1-.009.993,1.757,1.757,0,0,1-.921.817,1.9,1.9,0,0,1-1.253.188,1.161,1.161,0,0,1-.8-.7Z" transform="translate(-642.934 -368.57)" stroke="rgba(0,0,0,0)" stroke-width="1"/>
            <path id="Path_1346" data-name="Path 1346" d="M905.664,513.652l-.223-.5.368-.169-.335-.744.683-.313.334.743.429-.2.223.5-.429.2.634,1.409c.049.109.094.171.133.185s.129-.011.27-.075l.066-.032.067-.035.234.52-.321.162a.955.955,0,0,1-.745.136.56.56,0,0,1-.282-.316l-.738-1.641Z" transform="translate(-651.078 -366.653)" stroke="rgba(0,0,0,0)" stroke-width="1"/>
            <path id="Path_1347" data-name="Path 1347" d="M914.282,511.786a1.215,1.215,0,0,0,.248-.188.232.232,0,0,0,.06-.267.256.256,0,0,0-.216-.174.787.787,0,0,0-.363.091.486.486,0,0,0-.3.284.566.566,0,0,0,.012.29l-.665.306a1.133,1.133,0,0,1-.064-.664,1.253,1.253,0,0,1,.785-.785,1.831,1.831,0,0,1,.851-.182.725.725,0,0,1,.633.5l.55,1.223c.038.085.086.187.143.306a.424.424,0,0,0,.125.167.267.267,0,0,0,.138.035l.047.1-.751.344a.872.872,0,0,1-.112-.132c-.029-.043-.06-.094-.092-.152a1.588,1.588,0,0,1-.211.418,1.1,1.1,0,0,1-.448.362.953.953,0,0,1-.689.067.8.8,0,0,1-.5-.478.842.842,0,0,1,.058-.885,1.858,1.858,0,0,1,.533-.451Zm.568.131a.816.816,0,0,1-.1.129,1.209,1.209,0,0,1-.164.133l-.144.1a1.139,1.139,0,0,0-.274.241.352.352,0,0,0-.03.371.337.337,0,0,0,.216.212.413.413,0,0,0,.278-.032.794.794,0,0,0,.357-.323.618.618,0,0,0-.019-.572Z" transform="translate(-656.494 -365.626)" stroke="rgba(0,0,0,0)" stroke-width="1"/>
            <path id="Path_1348" data-name="Path 1348" d="M921.352,506.52l-.223-.5.368-.169-.335-.743.683-.313.334.743.428-.2.223.5-.428.2.634,1.408c.049.109.094.171.133.185s.129-.011.27-.075l.066-.032.067-.035.234.52-.321.162a.956.956,0,0,1-.745.136.559.559,0,0,1-.282-.316l-.738-1.641Z" transform="translate(-662.358 -361.545)" stroke="rgba(0,0,0,0)" stroke-width="1"/>
            <path id="Path_1349" data-name="Path 1349" d="M930.22,503.329a1.175,1.175,0,0,1,.633.185,1.435,1.435,0,0,1,.458.455,3.784,3.784,0,0,1,.261.518l-1.921.883a.7.7,0,0,0,.529.436.764.764,0,0,0,.426-.075.6.6,0,0,0,.387-.547l.7-.323a.964.964,0,0,1-.039.6,1.415,1.415,0,0,1-.818.845,1.567,1.567,0,0,1-1.077.1,1.412,1.412,0,0,1-.883-.882,1.6,1.6,0,0,1-.114-1.229,1.405,1.405,0,0,1,.777-.8,1.641,1.641,0,0,1,.677-.16m-.761,1.076a.8.8,0,0,0,0,.5l1.188-.546a.635.635,0,0,0-.373-.337.655.655,0,0,0-.473.044.6.6,0,0,0-.343.341" transform="translate(-667.795 -360.493)" stroke="rgba(0,0,0,0)" stroke-width="1"/>
            <path id="Path_1350" data-name="Path 1350" d="M942.945,496.119l-1.622-3.6.74-.34.619,1.374,1.387-.637-.619-1.374.741-.34,1.622,3.6-.74.34-.724-1.609-1.387.637.724,1.609Z" transform="translate(-676.879 -351.804)" stroke="rgba(0,0,0,0)" stroke-width="1"/>
            <path id="Path_1351" data-name="Path 1351" d="M955.894,488.837l.7-.321,1.266,1.734-.452-2.108.719-.33.435,3.016-.709.325-1.288-1.751.455,2.134-.716.329-1.94-2.325.741-.34,1.272,1.723Z" transform="translate(-686.255 -349.379)" stroke="rgba(0,0,0,0)" stroke-width="1"/>
            <path id="Path_1352" data-name="Path 1352" d="M969.949,487.6l.089-.035a1.146,1.146,0,0,0,.191-.1.382.382,0,0,0,.13-.127.412.412,0,0,0,.034-.225.459.459,0,0,0-.028-.182l-2.222-2.337.767-.352,1.461,1.7-.34-2.216.734-.337.275,3.036a4.09,4.09,0,0,1,.008,1.13q-.071.252-.529.463l-.148.067c-.038.017-.095.039-.171.068Z" transform="translate(-696.165 -346.216)" stroke="rgba(0,0,0,0)" stroke-width="1"/>
            <path id="Path_1353" data-name="Path 1353" d="M984.368,478.638a2.177,2.177,0,0,1,.359-1.07,5.773,5.773,0,0,0,.4-.778.809.809,0,0,0-.014-.607.616.616,0,0,0-.291-.317.552.552,0,0,0-.742.447,1.291,1.291,0,0,0,.118.471l-.671.308a1.9,1.9,0,0,1-.167-.806,1.121,1.121,0,0,1,.742-.981,1.356,1.356,0,0,1,1.027-.1,1.176,1.176,0,0,1,.7.674,1.238,1.238,0,0,1,.082.806,2.6,2.6,0,0,1-.3.683l-.187.325q-.176.3-.234.432a.856.856,0,0,0-.074.267l1.532-.7.277.614-2.4,1.1a1.843,1.843,0,0,1-.151-.771" transform="translate(-707.103 -340.308)" stroke="rgba(0,0,0,0)" stroke-width="1"/>
            <path id="Path_1354" data-name="Path 1354" d="M993.525,472.233l-.214-.474a3.339,3.339,0,0,0,.437-.254.71.71,0,0,0,.254-.341.672.672,0,0,0,.021-.316.653.653,0,0,0-.037-.154l.576-.264,1.6,3.545-.707.324-1.1-2.445Z" transform="translate(-714.263 -336.929)" stroke="rgba(0,0,0,0)" stroke-width="1"/>
            <path id="Path_1355" data-name="Path 1355" d="M1006.751,460.831l1.4,1.847.361.527-.15-.61-.531-2.26.786-.362,1.353,1.869.367.525-.139-.6-.463-2.3.759-.349.619,4.065-.714.328-1.379-1.91-.44-.639.188.755.518,2.305-.692.318-2.634-3.139Z" transform="translate(-723.358 -328.823)" stroke="rgba(0,0,0,0)" stroke-width="1"/>
            <path id="Path_1356" data-name="Path 1356" d="M1408.347,279.967a.8.8,0,0,0,.3.307.861.861,0,0,0,.735-.069,1.49,1.49,0,0,0,.411-.26.463.463,0,0,0,.131-.564.333.333,0,0,0-.28-.2,1.854,1.854,0,0,0-.571.059l-.425.092a2.611,2.611,0,0,1-.906.083.958.958,0,0,1-.712-.614,1.149,1.149,0,0,1-.009-.966,1.657,1.657,0,0,1,.892-.8,1.729,1.729,0,0,1,1.109-.145,1.171,1.171,0,0,1,.818.683l-.716.329a.56.56,0,0,0-.5-.33,1.066,1.066,0,0,0-.485.113.928.928,0,0,0-.419.334.412.412,0,0,0-.029.408.336.336,0,0,0,.3.209,2.348,2.348,0,0,0,.541-.068l.693-.139a1.737,1.737,0,0,1,.735-.022.963.963,0,0,1,.65.59,1.146,1.146,0,0,1-.009.993,1.755,1.755,0,0,1-.921.817,1.9,1.9,0,0,1-1.253.188,1.16,1.16,0,0,1-.8-.7Z" transform="translate(-1011.677 -198.285)" stroke="rgba(0,0,0,0)" stroke-width="1"/>
            <path id="Path_1357" data-name="Path 1357" d="M1418.468,275.9l-.224-.5.368-.169-.335-.743.683-.313.334.743.428-.2.224.5-.428.2.634,1.408c.049.109.094.171.133.185s.13-.011.27-.075l.066-.032c.023-.011.046-.023.067-.035l.234.521-.321.162a.954.954,0,0,1-.745.136.56.56,0,0,1-.282-.316l-.738-1.641Z" transform="translate(-1019.821 -196.369)" stroke="rgba(0,0,0,0)" stroke-width="1"/>
            <path id="Path_1358" data-name="Path 1358" d="M1427.086,274.03a1.218,1.218,0,0,0,.248-.188.231.231,0,0,0,.059-.266.256.256,0,0,0-.216-.174.787.787,0,0,0-.363.091.486.486,0,0,0-.3.284.558.558,0,0,0,.012.29l-.666.306a1.134,1.134,0,0,1-.064-.664,1.252,1.252,0,0,1,.785-.785,1.833,1.833,0,0,1,.851-.182.725.725,0,0,1,.633.5l.55,1.223q.057.127.143.306a.421.421,0,0,0,.125.166.262.262,0,0,0,.138.035l.046.1-.75.345a.883.883,0,0,1-.112-.132c-.029-.043-.059-.094-.092-.152a1.57,1.57,0,0,1-.211.419,1.1,1.1,0,0,1-.448.362.954.954,0,0,1-.689.067.8.8,0,0,1-.5-.478.841.841,0,0,1,.058-.885,1.86,1.86,0,0,1,.533-.451Zm.568.131a.856.856,0,0,1-.1.129,1.271,1.271,0,0,1-.164.133l-.144.1a1.139,1.139,0,0,0-.274.241.352.352,0,0,0-.03.371.337.337,0,0,0,.216.212.412.412,0,0,0,.278-.032.8.8,0,0,0,.357-.324.62.62,0,0,0-.019-.572Z" transform="translate(-1025.237 -195.341)" stroke="rgba(0,0,0,0)" stroke-width="1"/>
            <path id="Path_1359" data-name="Path 1359" d="M1434.157,268.764l-.223-.5.368-.169-.335-.743.683-.313.335.743.428-.2.224.5-.429.2.634,1.408c.049.109.094.171.133.185s.13-.011.27-.075l.066-.032.067-.035.234.52-.321.162a.956.956,0,0,1-.745.136.559.559,0,0,1-.282-.316l-.739-1.641Z" transform="translate(-1031.102 -191.26)" stroke="rgba(0,0,0,0)" stroke-width="1"/>
            <path id="Path_1360" data-name="Path 1360" d="M1443.025,265.573a1.176,1.176,0,0,1,.633.184,1.436,1.436,0,0,1,.458.455,3.838,3.838,0,0,1,.261.519l-1.922.883a.7.7,0,0,0,.529.436.762.762,0,0,0,.426-.075.644.644,0,0,0,.328-.3.637.637,0,0,0,.059-.249l.7-.323a.962.962,0,0,1-.039.6,1.415,1.415,0,0,1-.818.845,1.567,1.567,0,0,1-1.077.1,1.413,1.413,0,0,1-.883-.882,1.6,1.6,0,0,1-.114-1.229,1.406,1.406,0,0,1,.777-.8,1.642,1.642,0,0,1,.677-.16m-.761,1.076a.8.8,0,0,0,0,.5l1.188-.546a.633.633,0,0,0-.373-.337.655.655,0,0,0-.474.044.6.6,0,0,0-.343.341" transform="translate(-1036.539 -190.208)" stroke="rgba(0,0,0,0)" stroke-width="1"/>
            <path id="Path_1361" data-name="Path 1361" d="M1455.749,258.363l-1.622-3.6.74-.34.619,1.374,1.387-.637-.619-1.374.741-.34,1.622,3.6-.74.34-.724-1.609-1.387.637.724,1.609Z" transform="translate(-1045.623 -181.519)" stroke="rgba(0,0,0,0)" stroke-width="1"/>
            <path id="Path_1362" data-name="Path 1362" d="M1468.7,251.082l.7-.321,1.265,1.734-.452-2.108.719-.33.435,3.016-.709.325-1.287-1.751.455,2.134-.717.329-1.94-2.325.741-.34,1.272,1.723Z" transform="translate(-1055 -179.095)" stroke="rgba(0,0,0,0)" stroke-width="1"/>
            <path id="Path_1363" data-name="Path 1363" d="M1482.753,249.847l.089-.035a1.158,1.158,0,0,0,.191-.1.381.381,0,0,0,.13-.127.411.411,0,0,0,.034-.225.456.456,0,0,0-.028-.182l-2.222-2.337.767-.352,1.461,1.7-.34-2.216.733-.337.275,3.036a4.085,4.085,0,0,1,.008,1.13q-.07.252-.528.463l-.148.067c-.038.016-.095.039-.171.068Z" transform="translate(-1064.908 -175.931)" stroke="rgba(0,0,0,0)" stroke-width="1"/>
            <path id="Path_1364" data-name="Path 1364" d="M1497.173,240.882a2.178,2.178,0,0,1,.359-1.07,5.8,5.8,0,0,0,.4-.778.81.81,0,0,0-.014-.607.615.615,0,0,0-.292-.317.473.473,0,0,0-.42.013.479.479,0,0,0-.322.434,1.3,1.3,0,0,0,.118.47l-.67.308a1.9,1.9,0,0,1-.167-.806,1.121,1.121,0,0,1,.743-.981,1.355,1.355,0,0,1,1.027-.1,1.176,1.176,0,0,1,.7.674,1.24,1.24,0,0,1,.082.806,2.6,2.6,0,0,1-.3.683l-.187.325q-.176.3-.234.432a.85.85,0,0,0-.074.267l1.532-.7.277.614-2.4,1.1a1.849,1.849,0,0,1-.151-.771" transform="translate(-1075.847 -170.023)" stroke="rgba(0,0,0,0)" stroke-width="1"/>
            <path id="Path_1365" data-name="Path 1365" d="M1506.328,234.477l-.213-.474a3.316,3.316,0,0,0,.436-.254.712.712,0,0,0,.255-.341.673.673,0,0,0,.021-.316.652.652,0,0,0-.037-.154l.576-.264,1.6,3.545-.707.324-1.1-2.445Z" transform="translate(-1083.005 -166.644)" stroke="rgba(0,0,0,0)" stroke-width="1"/>
            <path id="Path_1366" data-name="Path 1366" d="M1519.556,223.075l1.4,1.847.361.527-.15-.61-.531-2.261.786-.361,1.353,1.869.367.525-.138-.6-.463-2.3.759-.349.619,4.065-.714.328-1.38-1.91-.439-.639.188.755.518,2.305-.692.318-2.634-3.139Z" transform="translate(-1092.101 -158.539)" stroke="rgba(0,0,0,0)" stroke-width="1"/>
            <path id="Path_1367" data-name="Path 1367" d="M333.011,780.34a.8.8,0,0,0,.3.307.861.861,0,0,0,.735-.069,1.486,1.486,0,0,0,.411-.26.462.462,0,0,0,.131-.564.333.333,0,0,0-.28-.2,1.855,1.855,0,0,0-.571.059l-.425.092a2.61,2.61,0,0,1-.907.083.958.958,0,0,1-.712-.614,1.149,1.149,0,0,1-.009-.966,1.657,1.657,0,0,1,.892-.8,1.732,1.732,0,0,1,1.11-.145,1.171,1.171,0,0,1,.817.683l-.716.329a.56.56,0,0,0-.5-.33,1.065,1.065,0,0,0-.485.113.928.928,0,0,0-.419.334.412.412,0,0,0-.029.408.336.336,0,0,0,.3.209,2.332,2.332,0,0,0,.541-.068l.693-.139a1.738,1.738,0,0,1,.735-.022.963.963,0,0,1,.65.59,1.147,1.147,0,0,1-.009.994,1.757,1.757,0,0,1-.921.817,1.9,1.9,0,0,1-1.253.188,1.16,1.16,0,0,1-.8-.7Z" transform="translate(-238.433 -556.661)" stroke="rgba(0,0,0,0)" stroke-width="1"/>
            <path id="Path_1368" data-name="Path 1368" d="M343.132,776.271l-.223-.5.368-.169-.335-.743.683-.313.334.743.429-.2.223.5-.428.2.634,1.408c.049.109.093.171.133.185s.13-.01.27-.075l.066-.032.067-.035.234.52-.321.162a.954.954,0,0,1-.745.136.559.559,0,0,1-.282-.316L343.5,776.1Z" transform="translate(-246.576 -554.745)" stroke="rgba(0,0,0,0)" stroke-width="1"/>
            <path id="Path_1369" data-name="Path 1369" d="M351.751,774.4a1.218,1.218,0,0,0,.248-.188.232.232,0,0,0,.06-.267.256.256,0,0,0-.216-.174.79.79,0,0,0-.363.091.486.486,0,0,0-.3.284.564.564,0,0,0,.012.29l-.666.306a1.134,1.134,0,0,1-.064-.664,1.253,1.253,0,0,1,.785-.785,1.834,1.834,0,0,1,.851-.182.725.725,0,0,1,.633.5l.55,1.223c.038.085.086.187.143.306a.426.426,0,0,0,.125.167.265.265,0,0,0,.138.035l.046.1-.75.345a.874.874,0,0,1-.112-.132c-.029-.043-.06-.094-.092-.153a1.576,1.576,0,0,1-.211.419,1.1,1.1,0,0,1-.448.363.955.955,0,0,1-.689.067.8.8,0,0,1-.5-.478.842.842,0,0,1,.058-.885,1.858,1.858,0,0,1,.533-.451Zm.568.131a.839.839,0,0,1-.1.129,1.234,1.234,0,0,1-.164.133l-.144.1a1.137,1.137,0,0,0-.274.241.352.352,0,0,0-.03.37.337.337,0,0,0,.216.212.411.411,0,0,0,.278-.032.8.8,0,0,0,.357-.323.619.619,0,0,0-.019-.572Z" transform="translate(-251.992 -553.717)" stroke="rgba(0,0,0,0)" stroke-width="1"/>
            <path id="Path_1370" data-name="Path 1370" d="M358.821,769.138l-.223-.5.368-.169-.335-.743.683-.313.335.743.428-.2.223.5-.428.2.634,1.409c.049.109.093.171.133.185s.13-.011.27-.075l.066-.032c.023-.011.045-.023.067-.035l.235.52-.321.162a.956.956,0,0,1-.745.136.56.56,0,0,1-.282-.316l-.738-1.641Z" transform="translate(-257.858 -549.636)" stroke="rgba(0,0,0,0)" stroke-width="1"/>
            <path id="Path_1371" data-name="Path 1371" d="M367.689,765.947a1.174,1.174,0,0,1,.633.185,1.432,1.432,0,0,1,.458.454,3.768,3.768,0,0,1,.261.518l-1.922.883a.7.7,0,0,0,.529.436.763.763,0,0,0,.426-.075.6.6,0,0,0,.387-.547l.7-.323a.965.965,0,0,1-.039.6,1.416,1.416,0,0,1-.818.845,1.569,1.569,0,0,1-1.077.1,1.412,1.412,0,0,1-.883-.882,1.6,1.6,0,0,1-.114-1.229,1.4,1.4,0,0,1,.777-.8,1.64,1.64,0,0,1,.677-.16m-.761,1.076a.8.8,0,0,0,0,.5l1.188-.546a.634.634,0,0,0-.373-.337.654.654,0,0,0-.473.044.6.6,0,0,0-.343.341" transform="translate(-263.294 -548.584)" stroke="rgba(0,0,0,0)" stroke-width="1"/>
            <path id="Path_1372" data-name="Path 1372" d="M380.414,758.737l-1.622-3.6.74-.34.619,1.374,1.387-.637-.619-1.374.741-.34,1.622,3.6-.741.34-.724-1.609-1.387.637.724,1.609Z" transform="translate(-272.379 -539.895)" stroke="rgba(0,0,0,0)" stroke-width="1"/>
            <path id="Path_1373" data-name="Path 1373" d="M393.363,751.455l.7-.321,1.266,1.735-.452-2.108.719-.33.435,3.016-.709.325-1.288-1.751.455,2.134-.716.329-1.94-2.325.741-.34,1.272,1.723Z" transform="translate(-281.755 -537.471)" stroke="rgba(0,0,0,0)" stroke-width="1"/>
            <path id="Path_1374" data-name="Path 1374" d="M407.418,750.22l.089-.035a1.148,1.148,0,0,0,.191-.1.383.383,0,0,0,.129-.127.417.417,0,0,0,.035-.225.464.464,0,0,0-.028-.182l-2.222-2.337.767-.352,1.461,1.7-.34-2.216.733-.337.275,3.036a4.089,4.089,0,0,1,.008,1.13q-.071.252-.529.463l-.149.067c-.037.016-.094.039-.171.068Z" transform="translate(-291.664 -534.307)" stroke="rgba(0,0,0,0)" stroke-width="1"/>
            <path id="Path_1375" data-name="Path 1375" d="M421.837,741.256a2.176,2.176,0,0,1,.359-1.07,5.735,5.735,0,0,0,.395-.778.811.811,0,0,0-.014-.607.616.616,0,0,0-.292-.317.551.551,0,0,0-.742.447,1.3,1.3,0,0,0,.118.471l-.67.308a1.9,1.9,0,0,1-.167-.806,1.121,1.121,0,0,1,.743-.981,1.355,1.355,0,0,1,1.027-.1,1.176,1.176,0,0,1,.7.674,1.237,1.237,0,0,1,.082.806,2.591,2.591,0,0,1-.3.683l-.187.325q-.176.3-.234.432a.872.872,0,0,0-.074.267l1.532-.7.276.614-2.4,1.1a1.847,1.847,0,0,1-.151-.771" transform="translate(-302.602 -528.4)" stroke="rgba(0,0,0,0)" stroke-width="1"/>
            <path id="Path_1376" data-name="Path 1376" d="M430.992,734.851l-.214-.474a3.3,3.3,0,0,0,.436-.254.71.71,0,0,0,.255-.341.675.675,0,0,0,.021-.316.661.661,0,0,0-.037-.154l.576-.264,1.6,3.545-.707.324-1.1-2.445Z" transform="translate(-309.761 -525.021)" stroke="rgba(0,0,0,0)" stroke-width="1"/>
            <path id="Path_1377" data-name="Path 1377" d="M444.22,723.449l1.4,1.847.361.527-.15-.61-.531-2.261.787-.361,1.353,1.869.367.525-.138-.6-.463-2.3.759-.349.619,4.065-.714.328-1.379-1.91-.439-.639.188.755.518,2.305-.692.318-2.634-3.139Z" transform="translate(-318.857 -516.915)" stroke="rgba(0,0,0,0)" stroke-width="1"/>
            <path id="Path_1378" data-name="Path 1378" d="M912.2,593.171a2.116,2.116,0,1,0,2.134-2.118,2.116,2.116,0,0,0-2.134,2.118m4.2,13.935a1.17,1.17,0,0,0,.435-.219c.183-.159.183-.311,0-.464a1.465,1.465,0,0,0-.53-.245,7.421,7.421,0,0,0-2.661-.172,4.185,4.185,0,0,0-1.083.229,1.123,1.123,0,0,0-.373.2.262.262,0,0,0,.006.447,1.206,1.206,0,0,0,.435.219,6.442,6.442,0,0,0,1.846.255,6.548,6.548,0,0,0,1.928-.249m1.96-13.826a3.95,3.95,0,1,0-3.93,3.984,3.971,3.971,0,0,0,3.93-3.984M914.477,605.1c-.072-.013-.095-.063-.121-.109a70.96,70.96,0,0,1-4.2-8.006c-.285-.656-.543-1.326-.782-2a5.438,5.438,0,0,1,4.251-7.188,5.44,5.44,0,0,1,5.939,7.029,31.53,31.53,0,0,1-1.862,4.444c-.972,1.952-2.032,3.858-3.145,5.73-.023.036-.052.07-.075.1" transform="translate(-653.676 -420.947)" fill="#b62227" stroke="rgba(0,0,0,0)" stroke-width="1"/>
            <path id="Path_1379" data-name="Path 1379" d="M931.352,329.773a2.116,2.116,0,1,0,2.134-2.118,2.116,2.116,0,0,0-2.134,2.118m4.2,13.935a1.169,1.169,0,0,0,.435-.219c.184-.159.184-.311,0-.464a1.468,1.468,0,0,0-.53-.245,7.42,7.42,0,0,0-2.661-.172,4.18,4.18,0,0,0-1.083.229,1.127,1.127,0,0,0-.373.2.262.262,0,0,0,.006.447,1.2,1.2,0,0,0,.435.219,6.442,6.442,0,0,0,1.846.255,6.55,6.55,0,0,0,1.928-.249m1.96-13.826a3.95,3.95,0,1,0-3.93,3.983,3.971,3.971,0,0,0,3.93-3.983M933.626,341.7c-.072-.013-.095-.063-.121-.109a71.013,71.013,0,0,1-4.2-8.007c-.285-.656-.543-1.326-.782-2a5.437,5.437,0,0,1,4.251-7.188,5.439,5.439,0,0,1,5.939,7.029,31.544,31.544,0,0,1-1.862,4.444c-.971,1.952-2.032,3.858-3.145,5.73-.023.036-.052.07-.075.1" transform="translate(-667.446 -232.296)" fill="#b62227" stroke="rgba(0,0,0,0)" stroke-width="1"/>
            <path id="Path_1380" data-name="Path 1380" d="M893.054,408.434a2.116,2.116,0,1,0,2.134-2.118,2.116,2.116,0,0,0-2.134,2.118m4.2,13.935a1.171,1.171,0,0,0,.435-.219c.184-.159.184-.311,0-.464a1.467,1.467,0,0,0-.53-.245,7.418,7.418,0,0,0-2.661-.172,4.176,4.176,0,0,0-1.083.229,1.122,1.122,0,0,0-.373.2.262.262,0,0,0,.006.447,1.2,1.2,0,0,0,.435.219,6.445,6.445,0,0,0,1.846.255,6.546,6.546,0,0,0,1.927-.249m1.96-13.826a3.95,3.95,0,1,0-3.93,3.983,3.97,3.97,0,0,0,3.93-3.983m-3.888,11.821c-.072-.013-.1-.063-.121-.109a70.969,70.969,0,0,1-4.2-8.007c-.285-.656-.543-1.326-.782-2a5.438,5.438,0,0,1,4.251-7.188,5.44,5.44,0,0,1,5.939,7.029,31.524,31.524,0,0,1-1.862,4.444c-.972,1.952-2.032,3.858-3.145,5.73-.023.036-.052.07-.075.1" transform="translate(-639.907 -288.635)" fill="#b62227" stroke="rgba(0,0,0,0)" stroke-width="1"/>
            <path id="Path_1381" data-name="Path 1381" d="M1012.813,239.955a12.191,12.191,0,1,1-12.19-12.314,12.252,12.252,0,0,1,12.19,12.314" transform="translate(-710.755 -163.04)" fill="#fff" stroke="rgba(0,0,0,0)" stroke-width="1"/>
            <path id="Path_1382" data-name="Path 1382" d="M1022.657,384.428a3.672,3.672,0,0,0-1.33-.615,18.591,18.591,0,0,0-6.673-.432,10.5,10.5,0,0,0-2.717.574,2.831,2.831,0,0,0-.936.5.659.659,0,0,0,.016,1.122,3.015,3.015,0,0,0,1.092.549,16.158,16.158,0,0,0,4.629.64,16.431,16.431,0,0,0,4.835-.624,2.944,2.944,0,0,0,1.092-.549c.46-.4.46-.782-.008-1.164" transform="translate(-726.763 -274.503)" fill="#b62227" stroke="rgba(0,0,0,0)" stroke-width="1"/>
            <path id="Path_1383" data-name="Path 1383" d="M1010.7,234.387a13.493,13.493,0,0,0-15.456-12.053,13.64,13.64,0,0,0-10.662,18.03c.6,1.688,1.248,3.367,1.962,5.013a178,178,0,0,0,10.547,20.083c.066.116.123.241.3.274.057-.075.131-.158.189-.249,2.791-4.7,5.45-9.477,7.888-14.373a79.225,79.225,0,0,0,4.67-11.147,13.526,13.526,0,0,0,.558-5.578m-13.46,13a11.342,11.342,0,1,1,11.227-11.341,11.3,11.3,0,0,1-11.227,11.341" transform="translate(-707.419 -159.126)" fill="#b62227" stroke="rgba(0,0,0,0)" stroke-width="1"/>
            <path id="Path_1384" data-name="Path 1384" d="M1005.326,234.419a10.338,10.338,0,0,0-10.285,10.391,10.468,10.468,0,0,0,.36,2.734,2.654,2.654,0,0,1,1.507-1.03,2.436,2.436,0,0,1,2.239.553,1.728,1.728,0,0,1,.447,1.219,1.575,1.575,0,0,1-.362.981,1.484,1.484,0,0,1-1.1.435.614.614,0,0,1-.514-.34.819.819,0,0,1-.022-.63c.183-.564.864-.527.738-1.217-.086-.469-.337-.577-.617-.577-.493,0-.883.685-1.009,1.49a2.841,2.841,0,0,0,.915,2.349,2.256,2.256,0,0,0,1.45.635,2.175,2.175,0,0,0,1.722-.8,2.252,2.252,0,0,0,.416-1.416,1.209,1.209,0,0,0,.006-.121v-7.286c-.113-.552-.445-.971-.9-.971-1.111,0-1.063,1.416-.12,1.3.29-.022.458.221.447.552-.048,1.269-2.285,1.172-2.285-.441,0-1.037.858-1.611,1.958-1.611h2.381l.181.111,2.743,5.736,2.55-5.736.17-.111h2.308v.22c-.883,0-.918,1.122-.918,1.6v4.8c.046.51.312,1.327,1.115,1.327v.231h-4.018v-.231c.892,0,1.218-1.013,1.218-1.487v-3.269h.006v-2.056l-3.035,6.812h-.278l-2.837-5.932c-.006,1.925-.006,5.659-.007,6.54,0,.109,0,.219-.014.328a3,3,0,0,1-.94,2.111,3.3,3.3,0,0,1-2.905.513,10.2,10.2,0,0,0,7.3,3.068,10.391,10.391,0,0,0,0-20.781" transform="translate(-715.507 -167.895)" fill="#b62227" stroke="rgba(0,0,0,0)" stroke-width="1"/>
            <path id="Path_1385" data-name="Path 1385" d="M882.225,330.256a.733.733,0,0,1,.13.436.641.641,0,0,1-.131.421.676.676,0,0,1-.216.163.63.63,0,0,1,.327.252.761.761,0,0,1,.11.419.843.843,0,0,1-.126.456.787.787,0,0,1-.2.225.779.779,0,0,1-.32.144,1.943,1.943,0,0,1-.4.039h-1.275v-2.86h1.368a.863.863,0,0,1,.733.3m-1.537.192v.631h.688a.566.566,0,0,0,.3-.071.272.272,0,0,0,.115-.252.256.256,0,0,0-.152-.264,1.053,1.053,0,0,0-.334-.045Zm0,1.1v.762h.687a.666.666,0,0,0,.287-.05.362.362,0,0,0,.186-.357.307.307,0,0,0-.18-.306.7.7,0,0,0-.283-.049Z" transform="translate(-632.873 -236.316)" fill="#f4cfce" stroke="rgba(0,0,0,0)" stroke-width="1"/>
            <path id="Path_1386" data-name="Path 1386" d="M890.984,332.477a.854.854,0,0,1,.362.313,1.049,1.049,0,0,1,.167.437,2.752,2.752,0,0,1,.018.42h-1.525a.509.509,0,0,0,.219.446.552.552,0,0,0,.3.079.425.425,0,0,0,.416-.242h.559a.691.691,0,0,1-.2.382,1.011,1.011,0,0,1-.787.308,1.134,1.134,0,0,1-.737-.26,1.03,1.03,0,0,1-.319-.847,1.15,1.15,0,0,1,.289-.842,1,1,0,0,1,.748-.293,1.182,1.182,0,0,1,.493.1m-.819.478a.577.577,0,0,0-.146.327h.943a.461.461,0,0,0-.146-.334.475.475,0,0,0-.324-.114.431.431,0,0,0-.327.121" transform="translate(-639.582 -238.055)" fill="#f4cfce" stroke="rgba(0,0,0,0)" stroke-width="1"/>
            <path id="Path_1387" data-name="Path 1387" d="M897.919,333.863a.37.37,0,0,0,.075.209.507.507,0,0,0,.378.111.572.572,0,0,0,.258-.048.163.163,0,0,0,.019-.287,3.133,3.133,0,0,0-.573-.167,1.179,1.179,0,0,1-.5-.223.486.486,0,0,1-.146-.38.661.661,0,0,1,.228-.5.911.911,0,0,1,.642-.211,1.168,1.168,0,0,1,.64.158.679.679,0,0,1,.284.546h-.547a.33.33,0,0,0-.06-.169.373.373,0,0,0-.308-.113.44.44,0,0,0-.255.056.163.163,0,0,0-.076.132.144.144,0,0,0,.081.138,3.491,3.491,0,0,0,.572.154,1.046,1.046,0,0,1,.49.235.536.536,0,0,1,.161.4.646.646,0,0,1-.232.513,1.084,1.084,0,0,1-.717.2,1.073,1.073,0,0,1-.73-.211.687.687,0,0,1-.236-.536Z" transform="translate(-645.27 -238.045)" fill="#f4cfce" stroke="rgba(0,0,0,0)" stroke-width="1"/>
            <path id="Path_1388" data-name="Path 1388" d="M904.849,331.55v-.394h.292v-.59h.542v.59h.34v.394h-.34v1.118a.253.253,0,0,0,.033.162.357.357,0,0,0,.2.032h.053l.055,0v.413l-.259.01a.691.691,0,0,1-.53-.136.406.406,0,0,1-.092-.293v-1.3Z" transform="translate(-650.652 -236.757)" fill="#f4cfce" stroke="rgba(0,0,0,0)" stroke-width="1"/>
            <path id="Path_1389" data-name="Path 1389" d="M855.209,346.751l.374,1.638.081.456.082-.446.32-1.647h.624l.336,1.638.086.456.087-.438.378-1.655h.6l-.8,2.859h-.566l-.342-1.672-.1-.553-.1.553-.342,1.672h-.549l-.8-2.859Z" transform="translate(-614.506 -248.349)" fill="#f4cfce" stroke="rgba(0,0,0,0)" stroke-width="1"/>
            <path id="Path_1390" data-name="Path 1390" d="M869.2,349.277a.854.854,0,0,1,.361.313,1.048,1.048,0,0,1,.167.437,2.771,2.771,0,0,1,.018.42H868.22a.509.509,0,0,0,.219.446.552.552,0,0,0,.3.079.425.425,0,0,0,.416-.242h.559a.693.693,0,0,1-.2.382,1.011,1.011,0,0,1-.787.309,1.134,1.134,0,0,1-.737-.26,1.03,1.03,0,0,1-.319-.846,1.151,1.151,0,0,1,.289-.843,1,1,0,0,1,.748-.293,1.182,1.182,0,0,1,.492.1m-.819.478a.578.578,0,0,0-.146.327h.943a.461.461,0,0,0-.146-.334.475.475,0,0,0-.324-.114.432.432,0,0,0-.327.121" transform="translate(-623.917 -250.087)" fill="#f4cfce" stroke="rgba(0,0,0,0)" stroke-width="1"/>
            <path id="Path_1391" data-name="Path 1391" d="M876.133,350.664a.368.368,0,0,0,.075.209.506.506,0,0,0,.378.111.572.572,0,0,0,.258-.049.155.155,0,0,0,.1-.146.157.157,0,0,0-.077-.142,3.135,3.135,0,0,0-.572-.167,1.178,1.178,0,0,1-.5-.223.486.486,0,0,1-.146-.38.661.661,0,0,1,.228-.5.911.911,0,0,1,.642-.211,1.167,1.167,0,0,1,.64.158.679.679,0,0,1,.284.546h-.547a.331.331,0,0,0-.06-.169.373.373,0,0,0-.308-.113.44.44,0,0,0-.255.056.163.163,0,0,0-.076.132.144.144,0,0,0,.081.138,3.464,3.464,0,0,0,.572.154,1.046,1.046,0,0,1,.49.235.536.536,0,0,1,.161.4.646.646,0,0,1-.232.513,1.382,1.382,0,0,1-1.447-.012.687.687,0,0,1-.236-.536Z" transform="translate(-629.604 -250.077)" fill="#f4cfce" stroke="rgba(0,0,0,0)" stroke-width="1"/>
            <path id="Path_1392" data-name="Path 1392" d="M883.063,348.349v-.394h.292v-.59h.542v.59h.34v.394h-.34v1.118a.252.252,0,0,0,.033.162.356.356,0,0,0,.2.032h.053l.055,0v.413l-.259.01a.692.692,0,0,1-.53-.136.406.406,0,0,1-.092-.293v-1.3Z" transform="translate(-634.986 -248.789)" fill="#f4cfce" stroke="rgba(0,0,0,0)" stroke-width="1"/>
            <path id="Path_1393" data-name="Path 1393" d="M889.432,349.277a.855.855,0,0,1,.362.313,1.049,1.049,0,0,1,.167.437,2.731,2.731,0,0,1,.018.42h-1.525a.509.509,0,0,0,.219.446.551.551,0,0,0,.3.079.425.425,0,0,0,.416-.242h.559a.693.693,0,0,1-.2.382,1.011,1.011,0,0,1-.787.309,1.134,1.134,0,0,1-.738-.26,1.03,1.03,0,0,1-.319-.846,1.15,1.15,0,0,1,.289-.843,1,1,0,0,1,.748-.293,1.181,1.181,0,0,1,.493.1m-.819.478a.577.577,0,0,0-.146.327h.943a.462.462,0,0,0-.146-.334.475.475,0,0,0-.324-.114.431.431,0,0,0-.327.121" transform="translate(-638.467 -250.087)" fill="#f4cfce" stroke="rgba(0,0,0,0)" stroke-width="1"/>
            <path id="Path_1394" data-name="Path 1394" d="M897.425,349.2l.047,0v.566c-.034,0-.065-.007-.092-.008l-.065,0a.453.453,0,0,0-.444.217.852.852,0,0,0-.063.376v1.011h-.551v-2.114h.523v.369a1.169,1.169,0,0,1,.221-.289.6.6,0,0,1,.4-.13h.026" transform="translate(-644.473 -250.102)" fill="#f4cfce" stroke="rgba(0,0,0,0)" stroke-width="1"/>
            <path id="Path_1395" data-name="Path 1395" d="M903.423,349.37a.7.7,0,0,1,.206.569v1.424h-.561v-1.286a.6.6,0,0,0-.044-.256.307.307,0,0,0-.3-.163.378.378,0,0,0-.379.239.83.83,0,0,0-.053.322v1.145h-.548v-2.111h.53v.309a.942.942,0,0,1,.2-.235.684.684,0,0,1,.426-.128.8.8,0,0,1,.529.172" transform="translate(-648.415 -250.101)" fill="#f4cfce" stroke="rgba(0,0,0,0)" stroke-width="1"/>
            <path id="Path_1396" data-name="Path 1396" d="M804.3,410.415a1.066,1.066,0,0,1-.22.409l.325.309-.309.325-.34-.326a1.186,1.186,0,0,1-.725.2,1.3,1.3,0,0,1-.915-.334,1.8,1.8,0,0,1,.011-2.365,1.319,1.319,0,0,1,.912-.328,1.3,1.3,0,0,1,.922.347,1.461,1.461,0,0,1,.43,1.123,1.917,1.917,0,0,1-.092.64m-1.073.384a.95.95,0,0,0,.133-.048l-.287-.276.3-.32.287.274a1.374,1.374,0,0,0,.094-.244,1.428,1.428,0,0,0,.042-.366,1.23,1.23,0,0,0-.195-.744.665.665,0,0,0-.569-.263.692.692,0,0,0-.561.252,1.161,1.161,0,0,0-.209.755,1.049,1.049,0,0,0,.3.842.7.7,0,0,0,.465.165.752.752,0,0,0,.2-.025" transform="translate(-576.462 -292.435)" fill="#f4cfce" stroke="rgba(0,0,0,0)" stroke-width="1"/>
            <path id="Path_1397" data-name="Path 1397" d="M813.289,411.237v1.275a.677.677,0,0,0,.042.271.29.29,0,0,0,.292.161.382.382,0,0,0,.382-.229.843.843,0,0,0,.053-.328v-1.15h.555v2.114h-.532v-.3c0,.007-.018.026-.038.059a.391.391,0,0,1-.073.085.752.752,0,0,1-.248.159.838.838,0,0,1-.28.043.624.624,0,0,1-.624-.337,1.309,1.309,0,0,1-.09-.549v-1.275Z" transform="translate(-584.41 -294.535)" fill="#f4cfce" stroke="rgba(0,0,0,0)" stroke-width="1"/>
            <path id="Path_1398" data-name="Path 1398" d="M821.8,411.938a.867.867,0,0,0,.219-.049.166.166,0,0,0,.118-.157.186.186,0,0,0-.091-.179.569.569,0,0,0-.266-.049.347.347,0,0,0-.279.1.4.4,0,0,0-.078.194H820.9a.814.814,0,0,1,.154-.456.9.9,0,0,1,.749-.28,1.325,1.325,0,0,1,.613.138.53.53,0,0,1,.268.52v.97q0,.1,0,.245a.311.311,0,0,0,.032.147.2.2,0,0,0,.081.064v.081h-.6a.617.617,0,0,1-.035-.12q-.01-.056-.015-.128a1.136,1.136,0,0,1-.263.211.786.786,0,0,1-.4.1.689.689,0,0,1-.472-.164.586.586,0,0,1-.186-.465.6.6,0,0,1,.3-.565,1.333,1.333,0,0,1,.484-.136Zm.334.258a.593.593,0,0,1-.106.053.9.9,0,0,1-.147.038l-.125.023a.811.811,0,0,0-.252.076.253.253,0,0,0-.129.235.247.247,0,0,0,.079.2.3.3,0,0,0,.192.063.567.567,0,0,0,.33-.1.445.445,0,0,0,.157-.382Z" transform="translate(-590.236 -294.407)" fill="#f4cfce" stroke="rgba(0,0,0,0)" stroke-width="1"/>
            <rect id="Rectangle_96" data-name="Rectangle 96" width="0.547" height="2.859" transform="translate(232.934 115.957)" fill="#f4cfce" stroke="rgba(0,0,0,0)" stroke-width="1"/>
            <path id="Path_1399" data-name="Path 1399" d="M833.592,409.061h-.555v-.51h.555Zm-.555.252h.555v2.114h-.555Z" transform="translate(-599.014 -292.611)" fill="#f4cfce" stroke="rgba(0,0,0,0)" stroke-width="1"/>
            <path id="Path_1400" data-name="Path 1400" d="M836.135,410.211v-.394h.292v-.59h.542v.59h.34v.394h-.34v1.117a.252.252,0,0,0,.033.162.357.357,0,0,0,.2.032h.053l.055,0v.413l-.259.01a.692.692,0,0,1-.53-.136.406.406,0,0,1-.092-.293v-1.3Z" transform="translate(-601.242 -293.095)" fill="#f4cfce" stroke="rgba(0,0,0,0)" stroke-width="1"/>
            <path id="Path_1401" data-name="Path 1401" d="M841.092,413.757l.069,0a.857.857,0,0,0,.154-.006.273.273,0,0,0,.123-.045.3.3,0,0,0,.089-.138.34.34,0,0,0,.036-.128l-.769-2.208h.609l.457,1.56.432-1.56h.582l-.717,2.08a2.936,2.936,0,0,1-.329.746.621.621,0,0,1-.484.144h-.117l-.133-.007Z" transform="translate(-604.591 -294.535)" fill="#f4cfce" stroke="rgba(0,0,0,0)" stroke-width="1"/>
            <rect id="Rectangle_97" data-name="Rectangle 97" width="0.588" height="2.859" transform="translate(239.694 115.957)" fill="#f4cfce" stroke="rgba(0,0,0,0)" stroke-width="1"/>
            <path id="Path_1402" data-name="Path 1402" d="M858.825,411.231a.7.7,0,0,1,.206.569v1.424h-.561v-1.286a.6.6,0,0,0-.044-.256.307.307,0,0,0-.3-.163.377.377,0,0,0-.379.239.831.831,0,0,0-.053.322v1.144h-.548v-2.111h.53v.308a.942.942,0,0,1,.2-.235.684.684,0,0,1,.427-.128.8.8,0,0,1,.529.171" transform="translate(-616.346 -294.408)" fill="#f4cfce" stroke="rgba(0,0,0,0)" stroke-width="1"/>
            <path id="Path_1403" data-name="Path 1403" d="M867.377,411.231a.7.7,0,0,1,.206.569v1.424h-.561v-1.286a.6.6,0,0,0-.044-.256.307.307,0,0,0-.3-.163.377.377,0,0,0-.379.239.827.827,0,0,0-.053.322v1.144h-.547v-2.111h.53v.308a.946.946,0,0,1,.2-.235.684.684,0,0,1,.426-.128.8.8,0,0,1,.529.171" transform="translate(-622.496 -294.408)" fill="#f4cfce" stroke="rgba(0,0,0,0)" stroke-width="1"/>
            <path id="Path_1404" data-name="Path 1404" d="M774.524,429.722a1.145,1.145,0,0,1-1.609,0,1.324,1.324,0,0,1,0-1.589,1.134,1.134,0,0,1,1.609,0,1.324,1.324,0,0,1,0,1.589m-.438-.306a1,1,0,0,0,0-.979.483.483,0,0,0-.738,0,.986.986,0,0,0,0,.979.482.482,0,0,0,.738,0" transform="translate(-555.591 -306.396)" fill="#f4cfce" stroke="rgba(0,0,0,0)" stroke-width="1"/>
            <path id="Path_1405" data-name="Path 1405" d="M781.974,425.313l.115.009v.45c-.031,0-.082-.007-.155-.009a.159.159,0,0,0-.191.162v.178h.359v.39h-.359V428.2H781.2v-1.705h-.307v-.39h.3v-.136a.719.719,0,0,1,.113-.467q.119-.19.574-.19c.034,0,.066,0,.094,0" transform="translate(-561.519 -304.614)" fill="#f4cfce" stroke="rgba(0,0,0,0)" stroke-width="1"/>
            <path id="Path_1406" data-name="Path 1406" d="M792.221,425.412h.851v2.859h-.551v-1.934q0-.083,0-.234c0-.1,0-.177,0-.232l-.536,2.4h-.575l-.533-2.4c0,.055,0,.132,0,.232s0,.178,0,.234v1.934h-.551v-2.859h.861l.515,2.248Z" transform="translate(-568.307 -304.687)" fill="#f4cfce" stroke="rgba(0,0,0,0)" stroke-width="1"/>
            <path id="Path_1407" data-name="Path 1407" d="M802.338,428.738a.87.87,0,0,0,.219-.048.166.166,0,0,0,.118-.157.187.187,0,0,0-.09-.179.57.57,0,0,0-.266-.049.346.346,0,0,0-.278.1.4.4,0,0,0-.078.194h-.528a.813.813,0,0,1,.154-.456.894.894,0,0,1,.748-.28,1.326,1.326,0,0,1,.613.138.529.529,0,0,1,.268.52v.97c0,.067,0,.149,0,.245a.309.309,0,0,0,.033.147.2.2,0,0,0,.081.064v.081h-.6a.622.622,0,0,1-.035-.12q-.01-.056-.015-.128a1.134,1.134,0,0,1-.263.211.785.785,0,0,1-.4.1.69.69,0,0,1-.472-.164.587.587,0,0,1-.186-.465.6.6,0,0,1,.3-.565,1.332,1.332,0,0,1,.484-.136Zm.335.258a.612.612,0,0,1-.106.053.882.882,0,0,1-.147.038l-.124.023a.814.814,0,0,0-.252.076.253.253,0,0,0-.129.235.246.246,0,0,0,.079.2.3.3,0,0,0,.192.063.568.568,0,0,0,.33-.1.445.445,0,0,0,.157-.382Z" transform="translate(-576.241 -306.44)" fill="#f4cfce" stroke="rgba(0,0,0,0)" stroke-width="1"/>
            <path id="Path_1408" data-name="Path 1408" d="M810.425,426.2a.666.666,0,0,1,.24.234v-1.009h.555v2.855h-.532v-.293a.778.778,0,0,1-.267.274.742.742,0,0,1-.372.085.775.775,0,0,1-.618-.3,1.159,1.159,0,0,1-.25-.769,1.335,1.335,0,0,1,.247-.852.8.8,0,0,1,.66-.31.669.669,0,0,1,.338.084m.135,1.506a.778.778,0,0,0,.121-.452.7.7,0,0,0-.194-.555.415.415,0,0,0-.276-.1.383.383,0,0,0-.353.183,1,1,0,0,0,0,.923.386.386,0,0,0,.347.175.4.4,0,0,0,.353-.175" transform="translate(-581.86 -304.697)" fill="#f4cfce" stroke="rgba(0,0,0,0)" stroke-width="1"/>
            <path id="Path_1409" data-name="Path 1409" d="M818.793,425.86h-.555v-.51h.555Zm-.555.252h.555v2.114h-.555Z" transform="translate(-588.372 -304.643)" fill="#f4cfce" stroke="rgba(0,0,0,0)" stroke-width="1"/>
            <path id="Path_1410" data-name="Path 1410" d="M822.19,429.325a.369.369,0,0,0,.075.209.507.507,0,0,0,.378.111.573.573,0,0,0,.258-.048.155.155,0,0,0,.1-.146.157.157,0,0,0-.077-.142,3.132,3.132,0,0,0-.573-.167,1.179,1.179,0,0,1-.5-.223.486.486,0,0,1-.146-.38.661.661,0,0,1,.228-.5.911.911,0,0,1,.642-.211,1.168,1.168,0,0,1,.64.158.679.679,0,0,1,.284.546h-.547a.331.331,0,0,0-.06-.169.373.373,0,0,0-.308-.113.439.439,0,0,0-.255.056.163.163,0,0,0-.076.132.145.145,0,0,0,.081.138,3.483,3.483,0,0,0,.572.153,1.047,1.047,0,0,1,.49.235.536.536,0,0,1,.161.4.645.645,0,0,1-.232.513,1.084,1.084,0,0,1-.717.2,1.073,1.073,0,0,1-.73-.211.687.687,0,0,1-.236-.536Z" transform="translate(-590.815 -306.415)" fill="#f4cfce" stroke="rgba(0,0,0,0)" stroke-width="1"/>
            <path id="Path_1411" data-name="Path 1411" d="M831.3,429.722a1.145,1.145,0,0,1-1.609,0,1.323,1.323,0,0,1,0-1.589,1.134,1.134,0,0,1,1.609,0,1.323,1.323,0,0,1,0,1.589m-.438-.306a1,1,0,0,0,0-.979.483.483,0,0,0-.738,0,.99.99,0,0,0,0,.979.482.482,0,0,0,.738,0" transform="translate(-596.42 -306.396)" fill="#f4cfce" stroke="rgba(0,0,0,0)" stroke-width="1"/>
            <path id="Path_1412" data-name="Path 1412" d="M840.136,428.031a.7.7,0,0,1,.206.569v1.424h-.561v-1.286a.6.6,0,0,0-.044-.256.308.308,0,0,0-.305-.163.377.377,0,0,0-.379.239.828.828,0,0,0-.053.322v1.145h-.548v-2.111h.53v.309a.941.941,0,0,1,.2-.235.685.685,0,0,1,.427-.128.8.8,0,0,1,.529.172" transform="translate(-602.908 -306.44)" fill="#f4cfce" stroke="rgba(0,0,0,0)" stroke-width="1"/>
            <path id="Path_1413" data-name="Path 1413" d="M847.751,428.037h.588l-.756,2.114h-.577l-.751-2.114h.614l.436,1.56Z" transform="translate(-608.519 -306.567)" fill="#f4cfce" stroke="rgba(0,0,0,0)" stroke-width="1"/>
            <path id="Path_1414" data-name="Path 1414" d="M855.358,425.86H854.8v-.51h.555Zm-.555.252h.555v2.114H854.8Z" transform="translate(-614.665 -304.643)" fill="#f4cfce" stroke="rgba(0,0,0,0)" stroke-width="1"/>
            <rect id="Rectangle_98" data-name="Rectangle 98" width="0.547" height="2.859" transform="translate(241.235 120.725)" fill="#f4cfce" stroke="rgba(0,0,0,0)" stroke-width="1"/>
            <rect id="Rectangle_99" data-name="Rectangle 99" width="0.547" height="2.859" transform="translate(242.327 120.725)" fill="#f4cfce" stroke="rgba(0,0,0,0)" stroke-width="1"/>
            <path id="Path_1415" data-name="Path 1415" d="M867.386,427.938a.853.853,0,0,1,.362.313,1.048,1.048,0,0,1,.167.437,2.74,2.74,0,0,1,.018.42h-1.525a.509.509,0,0,0,.219.446.551.551,0,0,0,.3.08.426.426,0,0,0,.416-.242h.559a.691.691,0,0,1-.2.382,1.011,1.011,0,0,1-.787.308,1.134,1.134,0,0,1-.738-.26,1.03,1.03,0,0,1-.319-.846,1.15,1.15,0,0,1,.289-.843,1,1,0,0,1,.748-.293,1.18,1.18,0,0,1,.492.1m-.819.478a.578.578,0,0,0-.146.327h.943a.463.463,0,0,0-.146-.334.476.476,0,0,0-.324-.114.432.432,0,0,0-.327.121" transform="translate(-622.614 -306.425)" fill="#f4cfce" stroke="rgba(0,0,0,0)" stroke-width="1"/>
            <path id="Path_1416" data-name="Path 1416" d="M963.545,600.053a.734.734,0,0,1,.13.437.642.642,0,0,1-.131.421.674.674,0,0,1-.216.163.632.632,0,0,1,.327.252.763.763,0,0,1,.11.419.844.844,0,0,1-.126.456.791.791,0,0,1-.2.225.776.776,0,0,1-.32.143,1.912,1.912,0,0,1-.4.039h-1.275v-2.86h1.368a.864.864,0,0,1,.734.3m-1.537.192v.631h.688a.565.565,0,0,0,.3-.071.272.272,0,0,0,.115-.252.256.256,0,0,0-.152-.263,1.052,1.052,0,0,0-.335-.045Zm0,1.1v.763h.687a.656.656,0,0,0,.287-.051.361.361,0,0,0,.186-.357.308.308,0,0,0-.18-.306.712.712,0,0,0-.283-.049Z" transform="translate(-691.348 -429.55)" fill="#f4cfce" stroke="rgba(0,0,0,0)" stroke-width="1"/>
            <path id="Path_1417" data-name="Path 1417" d="M971.869,602.373v1.275a.68.68,0,0,0,.042.272.29.29,0,0,0,.292.161.381.381,0,0,0,.382-.229.839.839,0,0,0,.053-.328v-1.15h.555v2.115h-.532v-.3c0,.007-.018.026-.038.058a.4.4,0,0,1-.073.085.759.759,0,0,1-.248.159.833.833,0,0,1-.28.043.624.624,0,0,1-.624-.337,1.309,1.309,0,0,1-.09-.549v-1.275Z" transform="translate(-698.441 -431.43)" fill="#f4cfce" stroke="rgba(0,0,0,0)" stroke-width="1"/>
            <path id="Path_1418" data-name="Path 1418" d="M980.861,603a.491.491,0,0,0-.079-.213.33.33,0,0,0-.287-.128.378.378,0,0,0-.379.277,1.163,1.163,0,0,0-.054.391,1.069,1.069,0,0,0,.054.374.366.366,0,0,0,.369.263.325.325,0,0,0,.273-.1.523.523,0,0,0,.1-.272h.559a.93.93,0,0,1-.181.477.876.876,0,0,1-.763.363.889.889,0,0,1-.744-.3,1.231,1.231,0,0,1-.238-.785,1.25,1.25,0,0,1,.263-.847.913.913,0,0,1,.727-.3,1.088,1.088,0,0,1,.645.179.834.834,0,0,1,.3.631Z" transform="translate(-704.324 -431.302)" fill="#f4cfce" stroke="rgba(0,0,0,0)" stroke-width="1"/>
            <rect id="Rectangle_100" data-name="Rectangle 100" width="1.071" height="0.524" transform="translate(277.307 171.688)" fill="#f4cfce" stroke="rgba(0,0,0,0)" stroke-width="1"/>
            <path id="Path_1419" data-name="Path 1419" d="M993.3,602.274a.852.852,0,0,1,.362.313,1.045,1.045,0,0,1,.167.437,2.707,2.707,0,0,1,.018.419h-1.524a.509.509,0,0,0,.219.447.552.552,0,0,0,.3.079.425.425,0,0,0,.417-.243h.559a.689.689,0,0,1-.2.382,1.012,1.012,0,0,1-.788.308,1.134,1.134,0,0,1-.737-.26,1.029,1.029,0,0,1-.319-.846,1.152,1.152,0,0,1,.288-.843,1,1,0,0,1,.749-.293,1.177,1.177,0,0,1,.492.1m-.819.477a.581.581,0,0,0-.146.327h.943a.462.462,0,0,0-.146-.334.475.475,0,0,0-.324-.114.433.433,0,0,0-.327.121" transform="translate(-713.158 -431.288)" fill="#f4cfce" stroke="rgba(0,0,0,0)" stroke-width="1"/>
            <path id="Path_1420" data-name="Path 1420" d="M1001.09,602.274a.852.852,0,0,1,.362.313,1.05,1.05,0,0,1,.167.437,2.793,2.793,0,0,1,.018.419h-1.524a.509.509,0,0,0,.219.447.552.552,0,0,0,.3.079.425.425,0,0,0,.417-.243h.559a.689.689,0,0,1-.2.382,1.012,1.012,0,0,1-.788.308,1.134,1.134,0,0,1-.737-.26,1.029,1.029,0,0,1-.319-.846,1.152,1.152,0,0,1,.288-.843,1,1,0,0,1,.749-.293,1.177,1.177,0,0,1,.492.1m-.819.477a.581.581,0,0,0-.146.327h.943a.462.462,0,0,0-.146-.334.475.475,0,0,0-.325-.114.433.433,0,0,0-.327.121" transform="translate(-718.757 -431.288)" fill="#f4cfce" stroke="rgba(0,0,0,0)" stroke-width="1"/>
            <path id="Path_1421" data-name="Path 1421" d="M1007.937,600.67a.43.43,0,0,0,.275-.2.351.351,0,0,0,.035-.173h-.319v-.51h.565v.409a.63.63,0,0,1-.555.681Z" transform="translate(-724.773 -429.575)" fill="#f4cfce" stroke="rgba(0,0,0,0)" stroke-width="1"/>
            <path id="Path_1422" data-name="Path 1422" d="M1011.4,603.661a.368.368,0,0,0,.075.209.506.506,0,0,0,.378.111.574.574,0,0,0,.257-.048.155.155,0,0,0,.1-.146.158.158,0,0,0-.077-.142,3.171,3.171,0,0,0-.573-.167,1.181,1.181,0,0,1-.5-.223.486.486,0,0,1-.146-.38.662.662,0,0,1,.228-.5.911.911,0,0,1,.642-.211,1.166,1.166,0,0,1,.639.158.679.679,0,0,1,.284.546h-.547a.33.33,0,0,0-.06-.168.375.375,0,0,0-.308-.113.439.439,0,0,0-.255.056.163.163,0,0,0-.077.132.144.144,0,0,0,.081.138,3.43,3.43,0,0,0,.571.153,1.044,1.044,0,0,1,.49.235.537.537,0,0,1,.161.4.647.647,0,0,1-.232.513,1.086,1.086,0,0,1-.717.2,1.075,1.075,0,0,1-.73-.21.689.689,0,0,1-.236-.537Z" transform="translate(-726.872 -431.279)" fill="#f4cfce" stroke="rgba(0,0,0,0)" stroke-width="1"/>
            <path id="Path_1423" data-name="Path 1423" d="M961.365,616.71a1.311,1.311,0,0,1,1.9.12,1.039,1.039,0,0,1,.194.534h-.592a.816.816,0,0,0-.145-.311.638.638,0,0,0-.967.077,1.3,1.3,0,0,0-.182.744,1.135,1.135,0,0,0,.193.721.6.6,0,0,0,.49.239.552.552,0,0,0,.464-.206.9.9,0,0,0,.147-.332h.587a1.288,1.288,0,0,1-.388.76,1.123,1.123,0,0,1-.8.293,1.2,1.2,0,0,1-.95-.4,1.891,1.891,0,0,1,.047-2.244" transform="translate(-691.008 -441.445)" fill="#f4cfce" stroke="rgba(0,0,0,0)" stroke-width="1"/>
            <path id="Path_1424" data-name="Path 1424" d="M972.779,620.858a1.146,1.146,0,0,1-1.609,0,1.323,1.323,0,0,1,0-1.589,1.134,1.134,0,0,1,1.609,0,1.323,1.323,0,0,1,0,1.589m-.438-.306a1,1,0,0,0,0-.979.483.483,0,0,0-.738,0,.988.988,0,0,0,0,.979.481.481,0,0,0,.738,0" transform="translate(-698.151 -443.291)" fill="#f4cfce" stroke="rgba(0,0,0,0)" stroke-width="1"/>
            <path id="Path_1425" data-name="Path 1425" d="M981.612,619.168a.7.7,0,0,1,.205.569v1.424h-.561v-1.286a.593.593,0,0,0-.044-.256.307.307,0,0,0-.3-.163.378.378,0,0,0-.379.238.833.833,0,0,0-.054.322v1.144h-.547V619.05h.53v.309a.932.932,0,0,1,.2-.235.684.684,0,0,1,.427-.128.8.8,0,0,1,.529.172" transform="translate(-704.639 -443.335)" fill="#f4cfce" stroke="rgba(0,0,0,0)" stroke-width="1"/>
            <path id="Path_1426" data-name="Path 1426" d="M989.228,619.173h.588l-.756,2.114h-.577l-.75-2.114h.614l.436,1.56Z" transform="translate(-710.251 -443.462)" fill="#f4cfce" stroke="rgba(0,0,0,0)" stroke-width="1"/>
            <path id="Path_1427" data-name="Path 1427" d="M997.194,619.074a.854.854,0,0,1,.362.313,1.049,1.049,0,0,1,.167.437,2.7,2.7,0,0,1,.018.419h-1.524a.509.509,0,0,0,.219.446.551.551,0,0,0,.3.079.426.426,0,0,0,.416-.242h.559a.692.692,0,0,1-.2.382,1.012,1.012,0,0,1-.788.308,1.134,1.134,0,0,1-.737-.26,1.03,1.03,0,0,1-.319-.846,1.153,1.153,0,0,1,.288-.843,1.006,1.006,0,0,1,.749-.293,1.178,1.178,0,0,1,.492.1m-.819.477a.581.581,0,0,0-.146.327h.943a.461.461,0,0,0-.146-.334.475.475,0,0,0-.325-.114.432.432,0,0,0-.327.121" transform="translate(-715.955 -443.32)" fill="#f4cfce" stroke="rgba(0,0,0,0)" stroke-width="1"/>
            <path id="Path_1428" data-name="Path 1428" d="M1005.736,619.168a.705.705,0,0,1,.205.569v1.424h-.561v-1.286a.592.592,0,0,0-.044-.256.307.307,0,0,0-.3-.163.378.378,0,0,0-.379.238.833.833,0,0,0-.054.322v1.144h-.547V619.05h.53v.309a.936.936,0,0,1,.2-.235.684.684,0,0,1,.427-.128.8.8,0,0,1,.529.172" transform="translate(-721.986 -443.335)" fill="#f4cfce" stroke="rgba(0,0,0,0)" stroke-width="1"/>
            <path id="Path_1429" data-name="Path 1429" d="M1013.172,617h-.555v-.51h.555Zm-.555.252h.555v2.114h-.555Z" transform="translate(-728.145 -441.538)" fill="#f4cfce" stroke="rgba(0,0,0,0)" stroke-width="1"/>
            <path id="Path_1430" data-name="Path 1430" d="M1017.421,619.074a.853.853,0,0,1,.362.313,1.051,1.051,0,0,1,.167.437,2.753,2.753,0,0,1,.017.419h-1.524a.509.509,0,0,0,.219.446.55.55,0,0,0,.3.079.458.458,0,0,0,.3-.1.463.463,0,0,0,.113-.145h.559a.69.69,0,0,1-.2.382,1.012,1.012,0,0,1-.788.308,1.134,1.134,0,0,1-.737-.26,1.03,1.03,0,0,1-.319-.846,1.153,1.153,0,0,1,.288-.843,1.006,1.006,0,0,1,.749-.293,1.177,1.177,0,0,1,.492.1m-.818.477a.581.581,0,0,0-.146.327h.943a.462.462,0,0,0-.146-.334.476.476,0,0,0-.325-.114.432.432,0,0,0-.327.121" transform="translate(-730.5 -443.32)" fill="#f4cfce" stroke="rgba(0,0,0,0)" stroke-width="1"/>
            <path id="Path_1431" data-name="Path 1431" d="M1025.964,619.168a.7.7,0,0,1,.205.569v1.424h-.561v-1.286a.592.592,0,0,0-.044-.256.307.307,0,0,0-.3-.163.377.377,0,0,0-.379.238.831.831,0,0,0-.054.322v1.144h-.547V619.05h.53v.309a.931.931,0,0,1,.2-.235.684.684,0,0,1,.427-.128.8.8,0,0,1,.529.172" transform="translate(-736.531 -443.335)" fill="#f4cfce" stroke="rgba(0,0,0,0)" stroke-width="1"/>
            <path id="Path_1432" data-name="Path 1432" d="M1033.765,619.8a.5.5,0,0,0-.079-.213.331.331,0,0,0-.287-.128.378.378,0,0,0-.379.277,1.164,1.164,0,0,0-.054.391,1.07,1.07,0,0,0,.054.374.366.366,0,0,0,.37.264.324.324,0,0,0,.273-.1.519.519,0,0,0,.1-.272h.559a.929.929,0,0,1-.181.477.875.875,0,0,1-.763.363.888.888,0,0,1-.744-.3,1.228,1.228,0,0,1-.239-.785,1.248,1.248,0,0,1,.264-.847.912.912,0,0,1,.727-.3,1.087,1.087,0,0,1,.645.179.832.832,0,0,1,.3.63Z" transform="translate(-742.366 -443.335)" fill="#f4cfce" stroke="rgba(0,0,0,0)" stroke-width="1"/>
            <path id="Path_1433" data-name="Path 1433" d="M1041.545,619.074a.853.853,0,0,1,.362.313,1.041,1.041,0,0,1,.167.437,2.738,2.738,0,0,1,.018.419h-1.525a.508.508,0,0,0,.219.446.551.551,0,0,0,.3.079.457.457,0,0,0,.3-.1.464.464,0,0,0,.113-.145h.559a.689.689,0,0,1-.2.382,1.011,1.011,0,0,1-.787.308,1.133,1.133,0,0,1-.737-.26,1.029,1.029,0,0,1-.32-.846,1.152,1.152,0,0,1,.289-.843,1,1,0,0,1,.749-.293,1.177,1.177,0,0,1,.492.1m-.819.477a.58.58,0,0,0-.146.327h.943a.461.461,0,0,0-.146-.334.475.475,0,0,0-.324-.114.433.433,0,0,0-.327.121" transform="translate(-747.847 -443.32)" fill="#f4cfce" stroke="rgba(0,0,0,0)" stroke-width="1"/>
            <path id="Path_1434" data-name="Path 1434" d="M1052.509,618.314a.58.58,0,0,0,.108.293.623.623,0,0,0,.5.177,1.067,1.067,0,0,0,.347-.047.332.332,0,0,0,.253-.332.245.245,0,0,0-.124-.219,1.338,1.338,0,0,0-.393-.134l-.307-.068a1.886,1.886,0,0,1-.621-.219.7.7,0,0,1-.286-.619.825.825,0,0,1,.28-.638,1.185,1.185,0,0,1,.822-.254,1.251,1.251,0,0,1,.773.24.856.856,0,0,1,.335.7h-.569a.41.41,0,0,0-.228-.367.78.78,0,0,0-.353-.072.665.665,0,0,0-.374.093.3.3,0,0,0-.14.26.245.245,0,0,0,.138.229,1.686,1.686,0,0,0,.376.118l.5.118a1.262,1.262,0,0,1,.49.208.7.7,0,0,1,.253.584.823.823,0,0,1-.3.651,1.256,1.256,0,0,1-.847.259,1.378,1.378,0,0,1-.88-.255.848.848,0,0,1-.32-.7Z" transform="translate(-756.424 -441.371)" fill="#f4cfce" stroke="rgba(0,0,0,0)" stroke-width="1"/>
            <path id="Path_1435" data-name="Path 1435" d="M1060.852,618.147v-.394h.292v-.59h.542v.59h.34v.394h-.34v1.117a.257.257,0,0,0,.032.162.356.356,0,0,0,.2.032h.053l.055,0v.413l-.259.01a.69.69,0,0,1-.53-.136.406.406,0,0,1-.092-.293v-1.3Z" transform="translate(-762.829 -442.023)" fill="#f4cfce" stroke="rgba(0,0,0,0)" stroke-width="1"/>
            <path id="Path_1436" data-name="Path 1436" d="M1067.7,620.858a1.146,1.146,0,0,1-1.61,0,1.323,1.323,0,0,1,0-1.589,1.134,1.134,0,0,1,1.61,0,1.323,1.323,0,0,1,0,1.589m-.438-.306a.995.995,0,0,0,0-.979.483.483,0,0,0-.738,0,.99.99,0,0,0,0,.979.481.481,0,0,0,.738,0" transform="translate(-766.403 -443.291)" fill="#f4cfce" stroke="rgba(0,0,0,0)" stroke-width="1"/>
            <path id="Path_1437" data-name="Path 1437" d="M1075.98,619l.047,0v.566c-.034,0-.065-.007-.092-.008l-.066,0a.453.453,0,0,0-.443.217.852.852,0,0,0-.064.376v1.011h-.551v-2.114h.522v.369a1.18,1.18,0,0,1,.221-.289.6.6,0,0,1,.4-.13h.026" transform="translate(-772.867 -443.335)" fill="#f4cfce" stroke="rgba(0,0,0,0)" stroke-width="1"/>
            <path id="Path_1438" data-name="Path 1438" d="M1081.221,619.074a.855.855,0,0,1,.362.313,1.047,1.047,0,0,1,.167.437,2.712,2.712,0,0,1,.018.419h-1.524a.508.508,0,0,0,.219.446.551.551,0,0,0,.3.079.458.458,0,0,0,.3-.1.465.465,0,0,0,.113-.145h.559a.692.692,0,0,1-.2.382,1.012,1.012,0,0,1-.788.308,1.134,1.134,0,0,1-.737-.26,1.029,1.029,0,0,1-.319-.846,1.153,1.153,0,0,1,.288-.843,1.006,1.006,0,0,1,.749-.293,1.175,1.175,0,0,1,.492.1m-.818.477a.579.579,0,0,0-.146.327h.943a.462.462,0,0,0-.146-.334.474.474,0,0,0-.324-.114.432.432,0,0,0-.327.121" transform="translate(-776.377 -443.32)" fill="#f4cfce" stroke="rgba(0,0,0,0)" stroke-width="1"/>
            <path id="Path_1439" data-name="Path 1439" d="M553.359,388.14l.456.275-.037,1.966.865-1.469.406.244-1.241,2.106-.435-.262.032-2-.88,1.494-.406-.244Z" transform="translate(-397.013 -277.992)" stroke="rgba(0,0,0,0)" stroke-width="1"/>
            <path id="Path_1440" data-name="Path 1440" d="M563.723,394.246l1.5.878L565,395.5l-1.06-.622-.28.488.929.545-.212.368-.929-.545-.511.889-.436-.256Z" transform="translate(-404.482 -282.365)" stroke="rgba(0,0,0,0)" stroke-width="1"/>
            <path id="Path_1441" data-name="Path 1441" d="M571.044,399.954l.413.239-.406,1.269.886-.991.424.246-1.344,1.31-.418-.243L571,400.5l-.9,1-.423-.245.456-1.825.437.253-.4,1.268Z" transform="translate(-409.644 -286.078)" stroke="rgba(0,0,0,0)" stroke-width="1"/>
            <path id="Path_1442" data-name="Path 1442" d="M576,406.1l.05.033a.76.76,0,0,0,.117.062.236.236,0,0,0,.11.019.253.253,0,0,0,.124-.064c.05-.04.076-.067.08-.08l.355-1.974.453.261-.316,1.357.978-.976.433.249-1.409,1.24a2.5,2.5,0,0,1-.559.414.532.532,0,0,1-.422-.1l-.087-.051c-.021-.013-.054-.034-.1-.062Z" transform="translate(-414.049 -289.422)" stroke="rgba(0,0,0,0)" stroke-width="1"/>
            <path id="Path_1443" data-name="Path 1443" d="M586.741,409.621a.5.5,0,0,0-.043.264.543.543,0,0,0,.3.348.937.937,0,0,0,.278.114.281.281,0,0,0,.328-.139.21.21,0,0,0,0-.216,1.152,1.152,0,0,0-.236-.268l-.2-.182a1.64,1.64,0,0,1-.37-.43.6.6,0,0,1,.047-.583.7.7,0,0,1,.477-.355,1.015,1.015,0,0,1,.719.164,1.086,1.086,0,0,1,.475.51.737.737,0,0,1-.043.662l-.423-.244a.355.355,0,0,0-.016-.371.673.673,0,0,0-.232-.2.572.572,0,0,0-.318-.091.25.25,0,0,0-.213.134.211.211,0,0,0,.006.23,1.485,1.485,0,0,0,.23.249l.32.3a1.091,1.091,0,0,1,.277.365.6.6,0,0,1-.057.543.7.7,0,0,1-.5.356,1.075,1.075,0,0,1-.74-.171,1.192,1.192,0,0,1-.547-.567.73.73,0,0,1,.056-.66Z" transform="translate(-421.528 -292.33)" stroke="rgba(0,0,0,0)" stroke-width="1"/>
            <path id="Path_1444" data-name="Path 1444" d="M594.755,414.467a.74.74,0,0,1,.136.389.9.9,0,0,1-.061.4,2.309,2.309,0,0,1-.164.32l-1.133-.657a.438.438,0,0,0-.026.426.478.478,0,0,0,.191.189.393.393,0,0,0,.267.059.388.388,0,0,0,.145-.06l.415.241a.583.583,0,0,1-.312.2.864.864,0,0,1-.716-.11.986.986,0,0,1-.438-.511.887.887,0,0,1,.12-.767.975.975,0,0,1,.571-.5.858.858,0,0,1,.68.1,1.027,1.027,0,0,1,.324.286m-.81,0a.486.486,0,0,0-.247.181l.7.406a.4.4,0,0,0,.033-.311.413.413,0,0,0-.193-.225.368.368,0,0,0-.294-.051" transform="translate(-426.422 -296.547)" stroke="rgba(0,0,0,0)" stroke-width="1"/>
            <path id="Path_1445" data-name="Path 1445" d="M600.016,417.131l.034.023-.241.42-.065-.046-.048-.03a.386.386,0,0,0-.422-.031.723.723,0,0,0-.207.252l-.43.75-.409-.239.9-1.569.388.227-.157.273a1,1,0,0,1,.287-.119.513.513,0,0,1,.352.077l.019.012" transform="translate(-430.17 -298.42)" stroke="rgba(0,0,0,0)" stroke-width="1"/>
            <path id="Path_1446" data-name="Path 1446" d="M605.155,419.348l.435.257-1.465,1.234-.427-.252.351-1.893.455.269-.346,1.344Z" transform="translate(-434.102 -299.876)" stroke="rgba(0,0,0,0)" stroke-width="1"/>
            <path id="Path_1447" data-name="Path 1447" d="M608.927,420.983l.409.245-.914,1.56-.409-.245Zm.518.059-.41-.245.221-.376.409.245Z" transform="translate(-437.205 -301.112)" stroke="rgba(0,0,0,0)" stroke-width="1"/>
            <path id="Path_1448" data-name="Path 1448" d="M612.818,425.752a.419.419,0,0,0,.035-.192.286.286,0,0,0-.155-.222.32.32,0,0,0-.4.035.982.982,0,0,0-.21.263.918.918,0,0,0-.123.3.318.318,0,0,0,.156.359.276.276,0,0,0,.246.045.441.441,0,0,0,.191-.156l.411.249a.787.787,0,0,1-.341.27.746.746,0,0,1-.719-.073.772.772,0,0,1-.415-.554,1.236,1.236,0,0,1,.731-1.188.78.78,0,0,1,.666.1.943.943,0,0,1,.4.418.717.717,0,0,1-.057.6Z" transform="translate(-439.703 -304.285)" stroke="rgba(0,0,0,0)" stroke-width="1"/>
            <path id="Path_1449" data-name="Path 1449" d="M618.836,428.7a.739.739,0,0,1,.126.392.9.9,0,0,1-.072.395,2.31,2.31,0,0,1-.173.315l-1.114-.69a.438.438,0,0,0-.038.425.477.477,0,0,0,.185.195.361.361,0,0,0,.412.011l.408.253a.584.584,0,0,1-.318.188.865.865,0,0,1-.712-.131.984.984,0,0,1-.423-.524.885.885,0,0,1,.142-.763.973.973,0,0,1,.584-.485.856.856,0,0,1,.677.125,1.023,1.023,0,0,1,.316.3m-.81-.022a.489.489,0,0,0-.252.173l.689.427a.4.4,0,0,0,.042-.31.414.414,0,0,0-.187-.23.369.369,0,0,0-.292-.06" transform="translate(-443.725 -306.726)" stroke="rgba(0,0,0,0)" stroke-width="1"/>
            <path id="Path_1450" data-name="Path 1450" d="M627.642,431.879a.61.61,0,0,1,.1.268.773.773,0,0,1-.007.24.688.688,0,0,1-.1.241.731.731,0,0,1-.256.242.485.485,0,0,1-.37.045.458.458,0,0,1,.1.293.806.806,0,0,1-.145.361l-.088.139a1.253,1.253,0,0,0-.11.2.207.207,0,0,0,0,.169l-.033.052-.472-.3c.016-.054.03-.1.042-.129a1.205,1.205,0,0,1,.094-.19l.119-.194a.466.466,0,0,0,.1-.307.411.411,0,0,0-.2-.223l-.417-.269-.512.81-.417-.27,1.306-2.066.978.631a1.063,1.063,0,0,1,.289.261m-1.076-.264-.351.555.46.3a.579.579,0,0,0,.227.1.273.273,0,0,0,.268-.155.312.312,0,0,0,.043-.328.506.506,0,0,0-.175-.164Z" transform="translate(-449.47 -308.68)" stroke="rgba(0,0,0,0)" stroke-width="1"/>
            <path id="Path_1451" data-name="Path 1451" d="M634.39,438.32a.585.585,0,0,1,.062.282l.472-.721.4.265-1.336,2.042-.38-.254.137-.21a.658.658,0,0,1-.319.068.642.642,0,0,1-.306-.117.675.675,0,0,1-.3-.509,1,1,0,0,1,.181-.67,1.127,1.127,0,0,1,.575-.491.684.684,0,0,1,.617.093.584.584,0,0,1,.2.222m-.609,1.141a.656.656,0,0,0,.3-.266.6.6,0,0,0,.121-.489.361.361,0,0,0-.151-.2.327.327,0,0,0-.338-.037.847.847,0,0,0-.431.661.336.336,0,0,0,.166.291.343.343,0,0,0,.334.044" transform="translate(-455.036 -313.617)" stroke="rgba(0,0,0,0)" stroke-width="1"/>
            <path id="Path_1452" data-name="Path 1452" d="M698.109,488.821l.363.392-.575,1.878,1.234-1.169.323.348-1.77,1.677-.347-.373.58-1.918-1.256,1.19-.323-.348Z" transform="translate(-500.718 -350.102)" stroke="rgba(0,0,0,0)" stroke-width="1"/>
            <path id="Path_1453" data-name="Path 1453" d="M706.057,497.837l1.106,1.343-.328.276-.784-.952-.429.36.687.835-.324.272-.688-.835-.782.657-.322-.391Z" transform="translate(-506.366 -356.559)" stroke="rgba(0,0,0,0)" stroke-width="1"/>
            <path id="Path_1454" data-name="Path 1454" d="M711.063,505.113l.289.381-.859,1.013,1.2-.57.3.392-1.74.686-.293-.387.866-1.029-1.211.575-.3-.391,1.117-1.506.306.4-.851,1.016Z" transform="translate(-510.046 -361.172)" stroke="rgba(0,0,0,0)" stroke-width="1"/>
            <path id="Path_1455" data-name="Path 1455" d="M712.511,513.189l.032.051a.742.742,0,0,0,.08.105.238.238,0,0,0,.092.064.25.25,0,0,0,.14-.006.284.284,0,0,0,.106-.038l1.142-1.641.3.429-.85,1.1,1.292-.471.29.41-1.793.529a2.449,2.449,0,0,1-.679.139q-.16-.013-.341-.27l-.058-.083q-.021-.032-.061-.1Z" transform="translate(-512.128 -366.505)" stroke="rgba(0,0,0,0)" stroke-width="1"/>
            <path id="Path_1456" data-name="Path 1456" d="M721.183,521.069a.5.5,0,0,0-.158.216.549.549,0,0,0,.111.448.935.935,0,0,0,.2.23.28.28,0,0,0,.354.028.21.21,0,0,0,.1-.193,1.171,1.171,0,0,0-.089-.348l-.1-.254a1.666,1.666,0,0,1-.135-.553.6.6,0,0,1,.306-.5.691.691,0,0,1,.585-.1,1.027,1.027,0,0,1,.566.477,1.1,1.1,0,0,1,.192.673.731.731,0,0,1-.337.569l-.266-.412a.353.353,0,0,0,.153-.338.683.683,0,0,0-.114-.289.574.574,0,0,0-.241-.227.248.248,0,0,0-.25.02.211.211,0,0,0-.1.207,1.492,1.492,0,0,0,.092.328l.149.416a1.1,1.1,0,0,1,.082.452.6.6,0,0,1-.3.457.69.69,0,0,1-.6.088,1.085,1.085,0,0,1-.581-.493,1.206,1.206,0,0,1-.231-.757.725.725,0,0,1,.348-.561Z" transform="translate(-518.14 -372.449)" stroke="rgba(0,0,0,0)" stroke-width="1"/>
            <path id="Path_1457" data-name="Path 1457" d="M726.633,528.674a.746.746,0,0,1-.063.407.886.886,0,0,1-.24.32,2.3,2.3,0,0,1-.294.2l-.687-1.122a.435.435,0,0,0-.223.362.484.484,0,0,0,.078.258.4.4,0,0,0,.207.18.388.388,0,0,0,.156.017l.252.412a.582.582,0,0,1-.367.023.874.874,0,0,1-.578-.441,1,1,0,0,1-.144-.66.878.878,0,0,1,.467-.617.965.965,0,0,1,.738-.167.867.867,0,0,1,.549.419,1.038,1.038,0,0,1,.151.407m-.714-.388a.482.482,0,0,0-.3.04l.425.694a.4.4,0,0,0,.176-.258.417.417,0,0,0-.064-.29.372.372,0,0,0-.234-.186" transform="translate(-521.127 -378.039)" stroke="rgba(0,0,0,0)" stroke-width="1"/>
            <path id="Path_1458" data-name="Path 1458" d="M729.538,533.732l.019.036-.413.248c-.012-.027-.024-.051-.035-.072l-.027-.049a.388.388,0,0,0-.353-.235.715.715,0,0,0-.3.117l-.737.443-.241-.41,1.542-.926.229.389-.269.161a.978.978,0,0,1,.307.038.517.517,0,0,1,.27.241.185.185,0,0,1,.011.02" transform="translate(-523.088 -381.66)" stroke="rgba(0,0,0,0)" stroke-width="1"/>
            <path id="Path_1459" data-name="Path 1459" d="M732.494,537.5l.251.442-1.879.333-.246-.433,1.236-1.466.262.462-.962.992Z" transform="translate(-525.368 -384.164)" stroke="rgba(0,0,0,0)" stroke-width="1"/>
            <path id="Path_1460" data-name="Path 1460" d="M734.638,541.953l.231.42-1.567.882-.232-.42Zm.418.315-.231-.42.378-.212.231.42Z" transform="translate(-527.13 -387.928)" stroke="rgba(0,0,0,0)" stroke-width="1"/>
            <path id="Path_1461" data-name="Path 1461" d="M736.6,547.393a.414.414,0,0,0,.127-.147.289.289,0,0,0-.022-.27.323.323,0,0,0-.362-.176.983.983,0,0,0-.313.118.9.9,0,0,0-.257.193.319.319,0,0,0-.046.389.28.28,0,0,0,.19.165.439.439,0,0,0,.243-.036l.228.425a.774.774,0,0,1-.43.057.753.753,0,0,1-.582-.433.78.78,0,0,1-.078-.69,1.219,1.219,0,0,1,1.228-.647.787.787,0,0,1,.522.43.957.957,0,0,1,.13.564.711.711,0,0,1-.349.483Z" transform="translate(-528.7 -391.286)" stroke="rgba(0,0,0,0)" stroke-width="1"/>
            <path id="Path_1462" data-name="Path 1462" d="M740.331,552.968a.747.747,0,0,1-.092.4.889.889,0,0,1-.262.3,2.287,2.287,0,0,1-.308.18l-.606-1.169a.434.434,0,0,0-.248.345.486.486,0,0,0,.06.263.4.4,0,0,0,.194.194.387.387,0,0,0,.154.029l.222.428a.579.579,0,0,1-.368,0,.874.874,0,0,1-.545-.482,1,1,0,0,1-.1-.669.877.877,0,0,1,.51-.582.964.964,0,0,1,.748-.113.868.868,0,0,1,.518.458,1.039,1.039,0,0,1,.121.417m-.685-.438a.482.482,0,0,0-.3.018l.374.723a.394.394,0,0,0,.193-.244.418.418,0,0,0-.043-.294.374.374,0,0,0-.221-.2" transform="translate(-530.974 -395.394)" stroke="rgba(0,0,0,0)" stroke-width="1"/>
            <path id="Path_1463" data-name="Path 1463" d="M745.195,560.988a.6.6,0,0,1-.05.282.764.764,0,0,1-.128.2.686.686,0,0,1-.208.155.72.72,0,0,1-.343.074.485.485,0,0,1-.34-.154.463.463,0,0,1-.065.3.8.8,0,0,1-.309.234l-.146.074a1.162,1.162,0,0,0-.2.114.2.2,0,0,0-.082.147l-.054.027-.25-.506c.041-.038.075-.068.1-.088a1.215,1.215,0,0,1,.178-.114l.2-.1q.206-.107.241-.212a.415.415,0,0,0-.059-.3l-.221-.448-.852.429-.221-.448,2.172-1.093.517,1.049a1.069,1.069,0,0,1,.115.374m-.788-.786-.583.294.243.493a.588.588,0,0,0,.144.2.27.27,0,0,0,.309.007.309.309,0,0,0,.2-.259.515.515,0,0,0-.066-.231Z" transform="translate(-533.833 -400.769)" stroke="rgba(0,0,0,0)" stroke-width="1"/>
            <path id="Path_1464" data-name="Path 1464" d="M748.534,569.469a.581.581,0,0,1-.089.274l.771-.377.207.432-2.181,1.066-.2-.415.224-.109a.657.657,0,0,1-.308-.106.647.647,0,0,1-.2-.259.677.677,0,0,1,0-.593.981.981,0,0,1,.494-.483,1.114,1.114,0,0,1,.742-.125.69.69,0,0,1,.483.4.6.6,0,0,1,.062.295m-1.1.667a.651.651,0,0,0,.39-.074.592.592,0,0,0,.351-.358.366.366,0,0,0-.026-.253.33.33,0,0,0-.272-.206.836.836,0,0,0-.7.346.338.338,0,0,0,0,.336.346.346,0,0,0,.265.21" transform="translate(-536.921 -407.352)" stroke="rgba(0,0,0,0)" stroke-width="1"/>
            <path id="Path_1465" data-name="Path 1465" d="M795.5,671.071l.227.486-1.119,1.609,1.53-.729.2.432-2.194,1.046-.216-.463,1.136-1.644-1.557.742-.2-.432Z" transform="translate(-570.441 -480.632)" stroke="rgba(0,0,0,0)" stroke-width="1"/>
            <path id="Path_1466" data-name="Path 1466" d="M800.646,681.89l.752,1.573-.384.187-.533-1.116-.5.245.467.978-.38.185-.468-.978-.916.447-.219-.458Z" transform="translate(-574.153 -488.381)" stroke="rgba(0,0,0,0)" stroke-width="1"/>
            <path id="Path_1467" data-name="Path 1467" d="M803.938,689.646l.21.431-1.039.824,1.283-.323.216.443-1.84.329-.213-.437,1.048-.838-1.3.324-.215-.441,1.388-1.257.222.456-1.032.828Z" transform="translate(-576.761 -493.26)" stroke="rgba(0,0,0,0)" stroke-width="1"/>
            <path id="Path_1468" data-name="Path 1468" d="M803.9,698.274l.024.055a.746.746,0,0,0,.063.117.243.243,0,0,0,.081.078.255.255,0,0,0,.139.016.279.279,0,0,0,.111-.022l1.379-1.443.234.471-1.007.953,1.349-.265.224.45-1.853.244a2.463,2.463,0,0,1-.693.032q-.156-.038-.3-.32l-.044-.091c-.011-.023-.026-.058-.046-.105Z" transform="translate(-577.823 -499.257)" stroke="rgba(0,0,0,0)" stroke-width="1"/>
            <path id="Path_1469" data-name="Path 1469" d="M811.649,707.166a.5.5,0,0,0-.179.2.55.55,0,0,0,.065.457.946.946,0,0,0,.171.249.28.28,0,0,0,.349.064.209.209,0,0,0,.117-.181,1.171,1.171,0,0,0-.053-.355l-.069-.262a1.672,1.672,0,0,1-.078-.564.6.6,0,0,1,.355-.463.691.691,0,0,1,.591-.035,1.031,1.031,0,0,1,.515.533,1.1,1.1,0,0,1,.122.689.729.729,0,0,1-.393.531l-.223-.437a.351.351,0,0,0,.187-.32.679.679,0,0,0-.084-.3.58.58,0,0,0-.217-.251.249.249,0,0,0-.251-.006.21.21,0,0,0-.119.2,1.5,1.5,0,0,0,.058.336l.106.429a1.105,1.105,0,0,1,.036.458.6.6,0,0,1-.341.424.689.689,0,0,1-.609.025,1.09,1.09,0,0,1-.528-.551,1.21,1.21,0,0,1-.153-.777.723.723,0,0,1,.4-.522Z" transform="translate(-583.174 -505.809)" stroke="rgba(0,0,0,0)" stroke-width="1"/>
            <path id="Path_1470" data-name="Path 1470" d="M816.507,715.1a.742.742,0,0,1-.091.4.885.885,0,0,1-.262.3,2.3,2.3,0,0,1-.308.181l-.607-1.169a.435.435,0,0,0-.248.346.489.489,0,0,0,.06.263.4.4,0,0,0,.194.194.388.388,0,0,0,.154.028l.222.428a.578.578,0,0,1-.368,0,.874.874,0,0,1-.546-.481,1,1,0,0,1-.1-.669.876.876,0,0,1,.508-.582.964.964,0,0,1,.748-.115.869.869,0,0,1,.518.457,1.035,1.035,0,0,1,.122.417m-.685-.437a.484.484,0,0,0-.3.018l.376.723a.394.394,0,0,0,.193-.245.42.42,0,0,0-.044-.294.375.375,0,0,0-.221-.2" transform="translate(-585.75 -511.515)" stroke="rgba(0,0,0,0)" stroke-width="1"/>
            <path id="Path_1471" data-name="Path 1471" d="M819.133,720.374l.017.037-.424.229c-.011-.028-.021-.052-.032-.073s-.018-.038-.025-.051a.389.389,0,0,0-.342-.251.713.713,0,0,0-.307.1l-.757.408-.222-.421,1.583-.852.211.4-.276.149a.986.986,0,0,1,.305.052.515.515,0,0,1,.258.253.186.186,0,0,1,.01.02" transform="translate(-587.512 -515.319)" stroke="rgba(0,0,0,0)" stroke-width="1"/>
            <path id="Path_1472" data-name="Path 1472" d="M821.935,724.209l.24.447-1.886.287-.235-.44,1.272-1.434.251.468-.986.969Z" transform="translate(-589.677 -517.875)" stroke="rgba(0,0,0,0)" stroke-width="1"/>
            <path id="Path_1473" data-name="Path 1473" d="M824.035,728.69l.229.421-1.573.872-.229-.421Zm.416.317-.229-.421.379-.211.229.421Z" transform="translate(-591.41 -521.675)" stroke="rgba(0,0,0,0)" stroke-width="1"/>
            <path id="Path_1474" data-name="Path 1474" d="M826.037,734.132a.417.417,0,0,0,.125-.148.29.29,0,0,0-.024-.271.323.323,0,0,0-.364-.172.963.963,0,0,0-.312.122.9.9,0,0,0-.255.2.319.319,0,0,0-.042.39.28.28,0,0,0,.191.163.44.44,0,0,0,.242-.038l.232.423a.781.781,0,0,1-.429.062.755.755,0,0,1-.587-.427.781.781,0,0,1-.085-.689,1.222,1.222,0,0,1,1.221-.659.788.788,0,0,1,.527.424.956.956,0,0,1,.136.562.711.711,0,0,1-.344.487Z" transform="translate(-593.007 -525.033)" stroke="rgba(0,0,0,0)" stroke-width="1"/>
            <path id="Path_1475" data-name="Path 1475" d="M829.939,739.67a.743.743,0,0,1-.078.4.884.884,0,0,1-.252.31,2.231,2.231,0,0,1-.3.191l-.645-1.148a.435.435,0,0,0-.236.354.484.484,0,0,0,.069.261.363.363,0,0,0,.355.212l.236.421a.58.58,0,0,1-.368.009.872.872,0,0,1-.56-.463.994.994,0,0,1-.12-.665.878.878,0,0,1,.49-.6.962.962,0,0,1,.744-.139.867.867,0,0,1,.533.44,1.04,1.04,0,0,1,.135.413m-.7-.415a.484.484,0,0,0-.3.029l.4.71a.4.4,0,0,0,.185-.251.419.419,0,0,0-.053-.293.374.374,0,0,0-.228-.195" transform="translate(-595.409 -529.135)" stroke="rgba(0,0,0,0)" stroke-width="1"/>
            <path id="Path_1476" data-name="Path 1476" d="M835.234,747.267a.606.606,0,0,1-.032.284.76.76,0,0,1-.115.21.677.677,0,0,1-.2.169.721.721,0,0,1-.338.1.485.485,0,0,1-.349-.131.462.462,0,0,1-.046.3.8.8,0,0,1-.292.254l-.141.083a1.206,1.206,0,0,0-.188.127.205.205,0,0,0-.072.152l-.053.031-.282-.488c.039-.041.071-.072.1-.095a1.188,1.188,0,0,1,.17-.125l.193-.118c.133-.081.208-.157.227-.228a.418.418,0,0,0-.079-.292l-.25-.432-.822.484-.249-.433,2.1-1.235.585,1.013a1.074,1.074,0,0,1,.139.366m-.838-.732-.563.332.275.476a.584.584,0,0,0,.157.193.272.272,0,0,0,.309-.013.31.31,0,0,0,.186-.272.509.509,0,0,0-.081-.226Z" transform="translate(-598.567 -534.218)" stroke="rgba(0,0,0,0)" stroke-width="1"/>
            <path id="Path_1477" data-name="Path 1477" d="M839.174,755.649a.584.584,0,0,1-.066.281l.736-.442.243.413L838,757.152l-.233-.4.213-.129a.65.65,0,0,1-.316-.079.643.643,0,0,1-.225-.24.679.679,0,0,1-.052-.591.981.981,0,0,1,.451-.523,1.112,1.112,0,0,1,.729-.19.688.688,0,0,1,.515.355.591.591,0,0,1,.087.288m-1.04.76a.648.648,0,0,0,.383-.108.592.592,0,0,0,.32-.387.364.364,0,0,0-.047-.25.33.33,0,0,0-.288-.182.838.838,0,0,0-.672.406.337.337,0,0,0,.024.335.345.345,0,0,0,.282.186" transform="translate(-602.113 -540.742)" stroke="rgba(0,0,0,0)" stroke-width="1"/>
            <path id="Path_1478" data-name="Path 1478" d="M909.586,858.57l.317.431-.782,1.8,1.357-1.02.282.383-1.946,1.463-.3-.411.791-1.839-1.381,1.038-.282-.383Z" transform="translate(-652.658 -614.922)" stroke="rgba(0,0,0,0)" stroke-width="1"/>
            <path id="Path_1479" data-name="Path 1479" d="M916.794,868.191l1.043,1.394-.34.26-.739-.988-.445.34.648.866-.336.257-.648-.867-.811.62-.3-.406Z" transform="translate(-657.852 -621.813)" stroke="rgba(0,0,0,0)" stroke-width="1"/>
            <path id="Path_1480" data-name="Path 1480" d="M921.612,875.526l.289.382-.86,1.012,1.2-.568.3.393-1.741.683-.293-.387.867-1.028-1.211.573-.3-.391,1.119-1.5.306.4-.853,1.014Z" transform="translate(-661.446 -626.468)" stroke="rgba(0,0,0,0)" stroke-width="1"/>
            <path id="Path_1481" data-name="Path 1481" d="M923.315,883.659l.034.05a.755.755,0,0,0,.084.1.233.233,0,0,0,.094.061.254.254,0,0,0,.139-.011.285.285,0,0,0,.1-.043l1.079-1.684.319.417-.808,1.13,1.274-.521.305.4-1.772.6a2.484,2.484,0,0,1-.673.166c-.107-.005-.224-.09-.351-.256-.026-.033-.046-.06-.061-.081s-.037-.052-.065-.094Z" transform="translate(-663.717 -631.799)" stroke="rgba(0,0,0,0)" stroke-width="1"/>
            <path id="Path_1482" data-name="Path 1482" d="M932.468,891.1a.5.5,0,0,0-.138.228.546.546,0,0,0,.148.437.934.934,0,0,0,.215.212.28.28,0,0,0,.355,0,.211.211,0,0,0,.081-.2,1.17,1.17,0,0,0-.119-.339l-.117-.245a1.663,1.663,0,0,1-.182-.539.6.6,0,0,1,.262-.522.693.693,0,0,1,.574-.147,1.021,1.021,0,0,1,.6.426,1.1,1.1,0,0,1,.249.653.733.733,0,0,1-.287.6l-.3-.388a.352.352,0,0,0,.124-.35.679.679,0,0,0-.138-.278.574.574,0,0,0-.26-.206.248.248,0,0,0-.247.042.211.211,0,0,0-.08.215,1.509,1.509,0,0,0,.12.319l.184.4a1.107,1.107,0,0,1,.12.444.6.6,0,0,1-.256.481.689.689,0,0,1-.593.139,1.083,1.083,0,0,1-.621-.44,1.207,1.207,0,0,1-.294-.734.725.725,0,0,1,.3-.589Z" transform="translate(-670.083 -637.41)" stroke="rgba(0,0,0,0)" stroke-width="1"/>
            <path id="Path_1483" data-name="Path 1483" d="M938.6,898.28a.746.746,0,0,1-.016.412.9.9,0,0,1-.2.346,2.278,2.278,0,0,1-.27.235l-.81-1.035a.437.437,0,0,0-.181.386.485.485,0,0,0,.107.247.4.4,0,0,0,.226.155.376.376,0,0,0,.157,0l.3.38a.58.58,0,0,1-.362.066.871.871,0,0,1-.624-.371.994.994,0,0,1-.219-.639.879.879,0,0,1,.393-.667.963.963,0,0,1,.714-.252.864.864,0,0,1,.593.352,1.042,1.042,0,0,1,.2.387m-.753-.3a.483.483,0,0,0-.3.075l.5.641a.4.4,0,0,0,.145-.277.415.415,0,0,0-.1-.281.37.37,0,0,0-.254-.158" transform="translate(-673.559 -642.831)" stroke="rgba(0,0,0,0)" stroke-width="1"/>
            <path id="Path_1484" data-name="Path 1484" d="M942.172,902.8l.023.033-.376.3c-.016-.026-.031-.048-.044-.067s-.024-.034-.033-.045a.387.387,0,0,0-.381-.184.712.712,0,0,0-.284.158l-.671.54-.294-.373,1.4-1.129.279.354-.245.2a.969.969,0,0,1,.31,0,.513.513,0,0,1,.3.2l.013.018" transform="translate(-676.009 -646.05)" stroke="rgba(0,0,0,0)" stroke-width="1"/>
            <path id="Path_1485" data-name="Path 1485" d="M945.879,906.207l.315.4-1.8.624-.31-.39,1-1.641.33.415-.8,1.132Z" transform="translate(-678.862 -648.317)" stroke="rgba(0,0,0,0)" stroke-width="1"/>
            <path id="Path_1486" data-name="Path 1486" d="M948.641,909.87l.3.374-1.4,1.138-.3-.374Zm.465.238-.3-.374.337-.275.3.374Z" transform="translate(-681.138 -651.371)" stroke="rgba(0,0,0,0)" stroke-width="1"/>
            <path id="Path_1487" data-name="Path 1487" d="M951.408,915.3a.421.421,0,0,0,.1-.169.29.29,0,0,0-.071-.262.323.323,0,0,0-.388-.105.983.983,0,0,0-.286.175.911.911,0,0,0-.217.238.319.319,0,0,0,.026.391.278.278,0,0,0,.216.127.435.435,0,0,0,.232-.081l.3.376a.776.776,0,0,1-.412.136.751.751,0,0,1-.652-.317.778.778,0,0,1-.2-.663,1.224,1.224,0,0,1,1.088-.865.784.784,0,0,1,.592.325.952.952,0,0,1,.231.53.714.714,0,0,1-.255.54Z" transform="translate(-683.148 -654.826)" stroke="rgba(0,0,0,0)" stroke-width="1"/>
            <path id="Path_1488" data-name="Path 1488" d="M956.174,920.1a.746.746,0,0,1-.009.412.9.9,0,0,1-.2.349,2.271,2.271,0,0,1-.266.24l-.828-1.021a.436.436,0,0,0-.174.389.482.482,0,0,0,.111.246.4.4,0,0,0,.229.151.388.388,0,0,0,.157,0l.3.374a.577.577,0,0,1-.361.072.871.871,0,0,1-.63-.36.992.992,0,0,1-.229-.635.882.882,0,0,1,.382-.674.964.964,0,0,1,.71-.265.863.863,0,0,1,.6.342,1.041,1.041,0,0,1,.2.384m-.758-.289a.484.484,0,0,0-.294.08l.512.632a.4.4,0,0,0,.14-.279.417.417,0,0,0-.1-.279.371.371,0,0,0-.257-.153" transform="translate(-686.196 -658.466)" stroke="rgba(0,0,0,0)" stroke-width="1"/>
            <path id="Path_1489" data-name="Path 1489" d="M962.808,926.277a.6.6,0,0,1,.015.286.764.764,0,0,1-.079.226.685.685,0,0,1-.168.2.72.72,0,0,1-.317.152.486.486,0,0,1-.366-.072.463.463,0,0,1,0,.309.8.8,0,0,1-.247.3l-.125.105a1.233,1.233,0,0,0-.165.156.208.208,0,0,0-.047.162l-.047.039-.358-.435q.048-.07.079-.11a1.247,1.247,0,0,1,.147-.151l.171-.148a.464.464,0,0,0,.187-.262.414.414,0,0,0-.125-.274l-.316-.385-.732.614L960,926.6l1.867-1.565.741.9a1.068,1.068,0,0,1,.2.338m-.945-.583-.5.421.348.424a.59.59,0,0,0,.187.164.27.27,0,0,0,.3-.065.31.31,0,0,0,.139-.3.511.511,0,0,0-.117-.21Z" transform="translate(-690.313 -662.527)" stroke="rgba(0,0,0,0)" stroke-width="1"/>
            <path id="Path_1490" data-name="Path 1490" d="M967.937,934.313a.58.58,0,0,1-.02.288l.656-.555.306.369-1.858,1.572-.293-.353.191-.161a.658.658,0,0,1-.325-.027.646.646,0,0,1-.261-.2.678.678,0,0,1-.145-.575.988.988,0,0,1,.362-.589,1.116,1.116,0,0,1,.69-.305.686.686,0,0,1,.565.267.587.587,0,0,1,.131.271m-.906.918a.653.653,0,0,0,.36-.169.6.6,0,0,0,.254-.434.365.365,0,0,0-.086-.239.328.328,0,0,0-.313-.133.842.842,0,0,0-.6.51.338.338,0,0,0,.077.327.345.345,0,0,0,.308.139" transform="translate(-694.75 -668.785)" stroke="rgba(0,0,0,0)" stroke-width="1"/>
          </g>
        </g>
      </g>
    </g>
  </g>
</svg>
